<svg width="24" height="24" viewBox="0 0 24 24" fill="none" xmlns="http://www.w3.org/2000/svg">
<path d="M12 24C14.3734 24 16.6934 23.2962 18.6668 21.9776C20.6402 20.6591 22.1783 18.7849 23.0865 16.5922C23.9948 14.3995 24.2324 11.9867 23.7694 9.65892C23.3064 7.33114 22.1635 5.19295 20.4853 3.51472C18.807 1.83649 16.6688 0.6936 14.3411 0.230577C12.0133 -0.232445 9.60051 0.00519562 7.40779 0.913446C5.21508 1.8217 3.34094 3.35977 2.02236 5.33316C0.703783 7.30655 -5.72205e-06 9.62662 -5.72205e-06 12C-5.72205e-06 15.1826 1.26428 18.2348 3.51471 20.4853C5.76515 22.7357 8.8174 24 12 24ZM5.43999 11.29L5.72999 11C5.92646 10.8158 6.18568 10.7133 6.45499 10.7133C6.72431 10.7133 6.98352 10.8158 7.17999 11L9.75999 13.37C10.17 13.74 10.5 13.6 10.5 13.05L10.5 6.56C10.5 6.29478 10.6054 6.04043 10.7929 5.85289C10.9804 5.66536 11.2348 5.56 11.5 5.56H12.5C12.7652 5.56 13.0196 5.66536 13.2071 5.85289C13.3946 6.04043 13.5 6.29478 13.5 6.56L13.5 13C13.5 13.55 13.83 13.7 14.24 13.33L16.82 11.03C17.0186 10.8501 17.277 10.7505 17.545 10.7505C17.813 10.7505 18.0714 10.8501 18.27 11.03L18.56 11.32C18.7432 11.5069 18.8459 11.7582 18.8459 12.02C18.8459 12.2818 18.7432 12.5331 18.56 12.72L12.74 18.23C12.5452 18.4135 12.2876 18.5157 12.02 18.5157C11.7523 18.5157 11.4948 18.4135 11.3 18.23L5.46999 12.62C5.30275 12.4406 5.20728 12.2059 5.20175 11.9607C5.19622 11.7155 5.28101 11.4768 5.43999 11.29Z" fill="white"/>
</svg>
