<svg width="24" height="24" viewBox="0 0 24 24" fill="none" xmlns="http://www.w3.org/2000/svg">
<path d="M24 12C24 9.62663 23.2962 7.30655 21.9776 5.33316C20.6591 3.35977 18.7849 1.8217 16.5922 0.913451C14.3995 0.00519943 11.9867 -0.232441 9.65892 0.230582C7.33114 0.693605 5.19295 1.83649 3.51472 3.51472C1.83649 5.19295 0.6936 7.33115 0.230577 9.65892C-0.232445 11.9867 0.00519562 14.3995 0.913446 16.5922C1.8217 18.7849 3.35977 20.6591 5.33316 21.9776C7.30655 23.2962 9.62662 24 12 24C15.1826 24 18.2348 22.7357 20.4853 20.4853C22.7357 18.2348 24 15.1826 24 12ZM11.29 18.56L11 18.27C10.8158 18.0735 10.7133 17.8143 10.7133 17.545C10.7133 17.2757 10.8158 17.0165 11 16.82L13.37 14.24C13.74 13.83 13.6 13.5 13.05 13.5H6.56C6.29478 13.5 6.04043 13.3946 5.85289 13.2071C5.66536 13.0196 5.56 12.7652 5.56 12.5V11.5C5.56 11.2348 5.66536 10.9804 5.85289 10.7929C6.04043 10.6054 6.29478 10.5 6.56 10.5H13C13.55 10.5 13.7 10.17 13.33 9.76001L11.03 7.18001C10.8501 6.98138 10.7505 6.72298 10.7505 6.45501C10.7505 6.18703 10.8501 5.92863 11.03 5.73001L11.32 5.44001C11.5069 5.25678 11.7582 5.15415 12.02 5.15415C12.2818 5.15415 12.5331 5.25678 12.72 5.44001L18.23 11.26C18.4135 11.4548 18.5157 11.7124 18.5157 11.98C18.5157 12.2477 18.4135 12.5052 18.23 12.7L12.62 18.53C12.4406 18.6973 12.2059 18.7927 11.9607 18.7982C11.7155 18.8038 11.4768 18.719 11.29 18.56Z" fill="white"/>
</svg>
