<svg width="26" height="19" viewBox="0 0 26 19" fill="none" xmlns="http://www.w3.org/2000/svg">
<path fill-rule="evenodd" clip-rule="evenodd" d="M9.12638 0.0296631C7.04391 0.0296631 5.46827 0.373451 3.74168 1.20272C3.64305 1.25009 3.56049 1.32432 3.50396 1.4165C2.31851 3.3493 0.000457764 8.72943 0.000457764 15.0949C0.000457764 15.2398 0.0580994 15.379 0.161188 15.4831C1.2458 16.5783 2.23304 17.3839 3.29119 17.9525C4.35557 18.5244 5.46512 18.8423 6.7768 18.9967C7.00008 19.023 7.21829 18.9184 7.33399 18.7297L7.91704 17.7792C7.06828 17.489 6.20258 17.1031 5.66956 16.5816C5.33545 16.2548 5.33545 15.7249 5.66956 15.3981C6.00367 15.0712 6.54539 15.0712 6.8795 15.3981C7.17014 15.6824 7.85304 16.0062 8.81742 16.3089L8.81859 16.3092C9.61539 16.5136 11.004 16.7688 12.5486 16.7688C14.0932 16.7688 15.4816 16.5132 16.2784 16.3089C16.2788 16.3088 16.2794 16.309 16.2797 16.3089C17.2441 16.0062 17.9271 15.6824 18.2177 15.3981C18.5519 15.0712 19.0935 15.0712 19.4276 15.3981C19.7617 15.7249 19.7617 16.2548 19.4276 16.5816C18.8947 17.1031 18.0289 17.489 17.1801 17.7792L17.7633 18.7297C17.8789 18.9184 18.0972 19.023 18.3204 18.9967C19.6321 18.8423 20.7416 18.5244 21.8061 17.9525C22.8642 17.3839 23.8514 16.5783 24.936 15.4831C25.0391 15.379 25.0967 15.2398 25.0967 15.0949C25.0967 8.72943 22.7787 3.3493 21.5932 1.4165C21.5367 1.32432 21.4541 1.25009 21.3556 1.20272C19.629 0.373451 18.0532 0.0296631 15.9708 0.0296631C15.7253 0.0296631 15.5073 0.183351 15.4298 0.411193L15.0463 1.53661C14.9523 1.5069 14.8485 1.476 14.7356 1.44517C14.1897 1.29597 13.4238 1.1456 12.5486 1.1456C11.6734 1.1456 10.9075 1.29597 10.3616 1.44517C10.2488 1.476 10.1449 1.5069 10.051 1.53661L9.66748 0.411193C9.58984 0.183351 9.37189 0.0296631 9.12638 0.0296631ZM10.2671 10.3521C10.2671 11.4307 9.50104 12.305 8.55601 12.305C7.61099 12.305 6.8449 11.4307 6.8449 10.3521C6.8449 9.27357 7.61099 8.39923 8.55601 8.39923C9.50104 8.39923 10.2671 9.27357 10.2671 10.3521ZM16.5412 12.305C17.4862 12.305 18.2523 11.4307 18.2523 10.3521C18.2523 9.27357 17.4862 8.39923 16.5412 8.39923C15.5962 8.39923 14.8301 9.27357 14.8301 10.3521C14.8301 11.4307 15.5962 12.305 16.5412 12.305Z" fill="white"/>
</svg>
