<svg xmlns="http://www.w3.org/2000/svg" fill="none" viewBox="0 0 267 49"><rect fill="#fff" width="161" height="49" rx="24"/><path d="M27.18 32c-.573 0-1.04-.173-1.4-.52-.36-.347-.54-.8-.54-1.36V18h10.68v2.4H28v3.24h7.32v2.4H28v3.56h7.92V32h-8.74Zm10.539-9.98h2.52v1.2c.293-.413.673-.74 1.14-.98.466-.253.933-.38 1.4-.38h1.2c1.066 0 1.92.333 2.56 1 .653.667.98 1.547.98 2.64V32h-2.72v-6.4c0-.413-.114-.747-.34-1a1.045 1.045 0 0 0-.84-.38h-1.2c-.467 0-.887.173-1.26.52-.36.333-.6.773-.72 1.32V32h-2.72v-9.98ZM54.07 32c-1.174 0-2.034-.267-2.58-.8-.547-.533-.82-1.36-.82-2.48v-4.38h-1.76v-2.32h1.84V19h2.64v3.02h2.6v2.32h-2.6v4.26c0 .373.066.647.2.82.146.173.373.26.68.26h1.72V32h-1.92Zm7.41.16c-.84 0-1.586-.153-2.24-.46-.64-.32-1.14-.76-1.5-1.32-.36-.573-.54-1.227-.54-1.96v-2.58c0-.787.18-1.48.54-2.08.36-.6.86-1.067 1.5-1.4.654-.333 1.4-.5 2.24-.5h1.6c1.28 0 2.307.36 3.08 1.08.774.72 1.16 1.68 1.16 2.88v2.12h-7.4v.48c0 .44.14.793.42 1.06.28.267.66.4 1.14.4h1.56c.467 0 .84-.1 1.12-.3.294-.213.44-.487.44-.82h2.68c0 .667-.18 1.26-.54 1.78-.36.52-.866.92-1.52 1.2-.64.28-1.38.42-2.22.42h-1.52Zm3.16-6.18v-.16c0-.52-.14-.933-.42-1.24-.28-.32-.653-.48-1.12-.48h-1.62c-.48 0-.866.167-1.16.5-.293.333-.44.773-.44 1.32v.06h4.76Zm4.523-3.96h2.52v1.28c.253-.387.613-.7 1.08-.94.48-.253.98-.38 1.5-.38h1.36v2.36h-1.36c-.707 0-1.28.213-1.72.64-.44.427-.66.973-.66 1.64V32h-2.72v-9.98Zm16.938-1.62h-4.44V18h11.64v2.4h-4.44V32h-2.76V20.4Zm10.145 11.76c-.84 0-1.587-.16-2.24-.48-.64-.333-1.14-.8-1.5-1.4-.347-.6-.52-1.293-.52-2.08v-2.34c0-.787.18-1.48.54-2.08.36-.613.86-1.087 1.5-1.42.653-.333 1.4-.5 2.24-.5h1.8c.84 0 1.58.167 2.22.5a3.64 3.64 0 0 1 1.52 1.42c.36.6.54 1.293.54 2.08v2.34c0 .787-.18 1.48-.54 2.08a3.68 3.68 0 0 1-1.52 1.4c-.64.32-1.387.48-2.24.48h-1.8Zm1.76-2.34c.493 0 .886-.167 1.18-.5.293-.347.44-.793.44-1.34v-1.94c0-.547-.147-.987-.44-1.32-.294-.347-.68-.52-1.16-.52h-1.72c-.48 0-.867.173-1.16.52-.294.333-.44.773-.44 1.32v1.94c0 .547.146.993.44 1.34.293.333.673.5 1.14.5h1.72Zm8.88 2.18c-.893 0-1.466-.52-1.72-1.56l-2.02-8.42h2.82l1.22 6.34h.04l2.18-6.1h1.06c.307 0 .554.067.74.2.187.133.334.34.44.62l1.86 5.28h.04l1.2-6.34h2.82l-1.98 8.42c-.24 1.04-.813 1.56-1.72 1.56h-1.24l-2.22-6.32-2.3 6.32h-1.22Zm15.766.16c-.84 0-1.586-.153-2.24-.46-.64-.32-1.14-.76-1.5-1.32-.36-.573-.54-1.227-.54-1.96v-2.58c0-.787.18-1.48.54-2.08.36-.6.86-1.067 1.5-1.4.654-.333 1.4-.5 2.24-.5h1.6c1.28 0 2.307.36 3.08 1.08.774.72 1.16 1.68 1.16 2.88v2.12h-7.4v.48c0 .44.14.793.42 1.06.28.267.66.4 1.14.4h1.56c.467 0 .84-.1 1.12-.3.294-.213.44-.487.44-.82h2.68c0 .667-.18 1.26-.54 1.78-.36.52-.866.92-1.52 1.2-.64.28-1.38.42-2.22.42h-1.52Zm3.16-6.18v-.16c0-.52-.14-.933-.42-1.24-.28-.32-.653-.48-1.12-.48h-1.62c-.48 0-.866.167-1.16.5-.293.333-.44.773-.44 1.32v.06h4.76Zm4.523-3.96h2.52v1.28c.253-.387.613-.7 1.08-.94.48-.253.98-.38 1.5-.38h1.36v2.36h-1.36c-.707 0-1.28.213-1.72.64-.44.427-.66.973-.66 1.64V32h-2.72v-9.98Z" fill="#000"/><path d="M261.333 24.5a2.667 2.667 0 1 0 5.334 0 2.667 2.667 0 0 0-5.334 0ZM161 25h103v-1H161v1Z" fill="#fff"/></svg>