<svg width="29" height="20" viewBox="0 0 29 20" fill="none" xmlns="http://www.w3.org/2000/svg">
<path d="M13.1848 16.5933C13.6126 16.5933 13.9976 16.9281 13.9976 17.3885C13.9976 17.8069 13.6554 18.1836 13.1848 18.1836C12.757 18.1836 12.372 17.8488 12.372 17.3885C12.372 16.9281 12.757 16.5933 13.1848 16.5933ZM25.7615 11.739C25.3337 11.739 24.9487 11.4042 24.9487 10.9439C24.9487 10.5254 25.2909 10.1488 25.7615 10.1488C26.1893 10.1488 26.5743 10.4836 26.5743 10.9439C26.5743 11.3624 26.1893 11.739 25.7615 11.739ZM25.7615 8.51671C24.3926 8.51671 23.2804 9.60476 23.2804 10.9439C23.2804 11.195 23.3231 11.4461 23.4087 11.6971L15.2381 15.9656C14.7676 15.2961 13.9976 14.9194 13.1848 14.9194C12.2437 14.9194 11.3882 15.4634 10.9604 16.2586L3.60264 12.4923C2.83264 12.0738 2.23375 10.8602 2.3193 9.68845C2.36208 9.10258 2.57597 8.64226 2.87541 8.47486C3.0893 8.34932 3.30319 8.39117 3.60264 8.51671L3.64541 8.55856C5.61319 9.56291 11.9871 12.827 12.2437 12.9526C12.6715 13.12 12.8854 13.2037 13.6126 12.8689L26.7881 6.17326C27.002 6.08956 27.2159 5.92217 27.2159 5.62924C27.2159 5.25261 26.8309 5.08521 26.8309 5.08521C26.0609 4.75043 24.9059 4.20641 23.7937 3.70424C21.3981 2.61619 18.6604 1.36076 17.4626 0.733042C16.4359 0.18902 15.5804 0.649346 15.452 0.733042L15.1526 0.858585C9.71986 3.53685 2.53319 7.01021 2.10541 7.2613C1.37819 7.67978 0.90763 8.55856 0.864852 9.6466C0.779297 11.3624 1.67763 13.1618 2.96097 13.7895L10.7465 17.7232C10.9176 18.895 11.9871 19.8156 13.1848 19.8156C14.5537 19.8156 15.6231 18.7694 15.6659 17.4303L24.2215 12.9107C24.6493 13.2455 25.2054 13.4129 25.7615 13.4129C27.1304 13.4129 28.2426 12.3249 28.2426 10.9857C28.2426 9.60476 27.1304 8.51671 25.7615 8.51671Z" fill="white"/>
</svg>
