<svg width="26" height="14" viewBox="0 0 26 14" fill="none" xmlns="http://www.w3.org/2000/svg">
<path fill-rule="evenodd" clip-rule="evenodd" d="M13.6889 7.15757C13.6889 10.8555 10.6245 13.8532 6.84444 13.8532C3.06436 13.8532 0 10.8555 0 7.15757C0 3.45966 3.06436 0.461914 6.84444 0.461914C10.6245 0.461914 13.6889 3.45966 13.6889 7.15757ZM21.3889 7.15757C21.3889 10.5474 19.9844 13.2952 18.2518 13.2952C16.5193 13.2952 15.1148 10.5474 15.1148 7.15757C15.1148 3.76781 16.5193 1.01989 18.2518 1.01989C19.9844 1.01989 21.3889 3.76781 21.3889 7.15757ZM23.9556 12.7373C24.5856 12.7373 25.0963 10.2391 25.0963 7.15757C25.0963 4.07598 24.5856 1.57786 23.9556 1.57786C23.3255 1.57786 22.8148 4.07598 22.8148 7.15757C22.8148 10.2391 23.3255 12.7373 23.9556 12.7373Z" fill="white"/>
</svg>
