<svg width="13" height="13" viewBox="0 0 13 13" fill="none" xmlns="http://www.w3.org/2000/svg">
<path d="M5.7697 3.33838C4.71021 3.31923 3.6593 3.3434 2.57811 3.41089C1.76635 3.46157 1.12157 4.10871 1.0348 4.91741C0.943575 5.76761 0.857422 6.64518 0.857422 7.54256C0.857422 8.43993 0.943575 9.31755 1.0348 10.1677C1.12157 10.9764 1.76643 11.6236 2.57819 11.6743C4.26253 11.7794 5.87337 11.7794 7.55771 11.6743C8.36946 11.6236 9.01431 10.9764 9.10113 10.1677C9.19233 9.31755 9.27847 8.43993 9.27847 7.54256C9.27847 7.30723 9.27258 7.07327 9.26214 6.84081" stroke="white" stroke-width="1.05263" stroke-linecap="round" stroke-linejoin="round"/>
<path d="M6.33105 6.22379L11.1761 1.37866" stroke="white" stroke-width="1.05263" stroke-linecap="round" stroke-linejoin="round"/>
<path d="M11.1968 4.79261C11.3323 3.42788 11.3324 2.6783 11.1968 1.37317C9.89167 1.23755 9.14211 1.23763 7.77734 1.37317" stroke="white" stroke-width="1.05263" stroke-linecap="round" stroke-linejoin="round"/>
</svg>
