<svg width="25" height="25" viewBox="0 0 25 25" fill="none" xmlns="http://www.w3.org/2000/svg">
<path fill-rule="evenodd" clip-rule="evenodd" d="M0.0195313 7.5622C0.0195313 6.42556 0.471061 5.33547 1.27479 4.53175C2.07852 3.72802 3.1686 3.27649 4.30525 3.27649H19.7338C20.8705 3.27649 21.9605 3.72802 22.7643 4.53175C23.568 5.33547 24.0195 6.42556 24.0195 7.5622V17.8479C24.0195 18.9846 23.568 20.0746 22.7643 20.8784C21.9605 21.6821 20.8705 22.1336 19.7338 22.1336H4.30525C3.1686 22.1336 2.07852 21.6821 1.27479 20.8784C0.471061 20.0746 0.0195313 18.9846 0.0195312 17.8479L0.0195313 7.5622ZM9.12239 9.4822V16.6822C9.1213 16.8031 9.15219 16.9221 9.21193 17.0272C9.27167 17.1323 9.35814 17.2198 9.46256 17.2807C9.56699 17.3416 9.68566 17.3738 9.80656 17.3741C9.92745 17.3744 10.0463 17.3427 10.151 17.2822L16.3224 13.6822C16.4255 13.6217 16.511 13.5353 16.5704 13.4315C16.6298 13.3278 16.6611 13.2103 16.6611 13.0908C16.6611 12.9712 16.6298 12.8537 16.5704 12.75C16.511 12.6463 16.4255 12.5598 16.3224 12.4993L10.151 8.89935C10.0485 8.83381 9.93014 8.79746 9.80858 8.7942C9.68701 8.79094 9.56686 8.82091 9.46106 8.88086C9.35525 8.94082 9.26781 9.02849 9.20813 9.13446C9.14845 9.24042 9.11881 9.36065 9.12239 9.4822Z" fill="white"/>
</svg>
