<svg width="222" height="127" viewBox="0 0 222 127" fill="none" xmlns="http://www.w3.org/2000/svg">
<g filter="url(#filter0_f_1817_9632)">
<line x1="63.3047" y1="60.1528" x2="48.3047" y2="103.153" stroke="url(#paint0_linear_1817_9632)" stroke-width="7"/>
</g>
<g filter="url(#filter1_b_1817_9632)">
<line x1="81.9442" y1="59.3294" x2="66.9442" y2="102.329" stroke="url(#paint1_linear_1817_9632)" stroke-width="2"/>
</g>
<g filter="url(#filter2_f_1817_9632)">
<line x1="164.289" y1="57.8039" x2="180.289" y2="101.804" stroke="url(#paint2_linear_1817_9632)" stroke-width="7"/>
</g>
<g filter="url(#filter3_b_1817_9632)">
<line x1="142.94" y1="58.6583" x2="158.94" y2="102.658" stroke="url(#paint3_linear_1817_9632)" stroke-width="2"/>
</g>
<g filter="url(#filter4_b_1817_9632)">
<rect width="222" height="66" rx="24" fill="url(#paint4_linear_1817_9632)" fill-opacity="0.7"/>
<path d="M36.3482 43C35.5642 43 34.9261 42.763 34.4339 42.289C33.9416 41.815 33.6955 41.1951 33.6955 40.4294V23.8571H43.2122C44.9442 23.8571 46.3298 24.2673 47.369 25.0878C48.4264 25.9082 48.9551 27.0112 48.9551 28.3967V29.7641C48.9551 30.3657 48.8001 30.94 48.4902 31.4869C48.1985 32.0339 47.7792 32.4805 47.2322 32.8269V32.8543C48.1073 33.1642 48.8093 33.6656 49.338 34.3584C49.8849 35.0512 50.1584 35.826 50.1584 36.6829V38.1049C50.1584 39.5999 49.6114 40.794 48.5176 41.6873C47.4419 42.5624 45.9834 43 44.142 43H36.3482ZM43.2122 31.7878C43.7956 31.7878 44.2697 31.6054 44.6343 31.2408C44.9989 30.858 45.1812 30.3566 45.1812 29.7367V28.8069C45.1812 28.2965 44.9898 27.8954 44.6069 27.6037C44.2241 27.2937 43.7136 27.1388 43.0755 27.1388H37.4694V31.7878H43.2122ZM43.8686 39.7184C44.6707 39.7184 45.2906 39.5634 45.7282 39.2535C46.1657 38.9253 46.3845 38.4695 46.3845 37.8861V36.6829C46.3845 36.1541 46.1931 35.7257 45.8102 35.3976C45.4273 35.0694 44.9169 34.9053 44.2788 34.9053H37.4694V39.7184H43.8686ZM57.0889 43.2188C55.6486 43.2188 54.4909 42.7356 53.6158 41.7694C52.7407 40.7849 52.3032 39.4996 52.3032 37.9135V29.3539H56.0224V37.9682C56.0224 38.5698 56.1682 39.062 56.4599 39.4449C56.7698 39.8095 57.1709 39.9918 57.6632 39.9918H59.2493C59.8509 39.9918 60.3979 39.7457 60.8901 39.2535C61.3824 38.743 61.7288 38.0776 61.9293 37.2571V29.3539H65.6485V43H62.2028V41.2498C61.7835 41.8332 61.2639 42.3072 60.644 42.6718C60.0424 43.0365 59.459 43.2188 58.8938 43.2188H57.0889ZM74.1166 48.5514C72.6399 48.5514 71.4184 48.1321 70.4521 47.2935C69.5041 46.4731 68.9754 45.3883 68.866 44.0392H72.5305C72.567 44.4403 72.7311 44.7593 73.0228 44.9963C73.3145 45.2516 73.6791 45.3792 74.1166 45.3792H76.3591C76.9243 45.3792 77.38 45.1422 77.7264 44.6682C78.0911 44.2124 78.2734 43.6107 78.2734 42.8633V41.0857C77.854 41.6509 77.3709 42.0976 76.824 42.4257C76.2953 42.7356 75.7666 42.8906 75.2379 42.8906H73.433C71.9927 42.8906 70.835 42.4166 69.9599 41.4686C69.0848 40.5023 68.6472 39.2261 68.6472 37.64V29.3539H72.3664V37.6947C72.3664 38.2963 72.5123 38.7886 72.804 39.1714C73.1139 39.5361 73.515 39.7184 74.0072 39.7184H75.5934C76.195 39.7184 76.7419 39.4722 77.2342 38.98C77.7264 38.4695 78.0728 37.8041 78.2734 36.9837V29.3539H81.9926V42.8633C81.9926 43.9936 81.7555 44.9872 81.2815 45.8441C80.8257 46.701 80.1694 47.3664 79.3126 47.8404C78.4557 48.3144 77.4712 48.5514 76.3591 48.5514H74.1166ZM103.343 32.0886C105.003 32.3803 106.27 32.8999 107.145 33.6473C108.02 34.3766 108.457 35.3246 108.457 36.4914V38.2963C108.457 39.7184 107.91 40.8761 106.817 41.7694C105.723 42.6627 104.264 43.1459 102.441 43.2188V45.7894H98.7218V43.2188C96.7711 43.2005 95.2397 42.6263 94.1275 41.4959C93.0337 40.3656 92.4867 38.8159 92.4867 36.8469H96.2059C96.2059 37.795 96.4429 38.5424 96.9169 39.0894C97.4092 39.6181 98.0837 39.8824 98.9406 39.8824H101.976C102.778 39.8824 103.426 39.7184 103.918 39.3902C104.428 39.0438 104.683 38.588 104.683 38.0229V37.0931C104.683 36.1997 104.027 35.6437 102.714 35.4249L97.6826 34.5771C96.0418 34.3037 94.793 33.7841 93.9361 33.0184C93.0975 32.2344 92.6782 31.2408 92.6782 30.0376V28.5061C92.6782 27.5763 92.9243 26.7468 93.4165 26.0176C93.927 25.2883 94.638 24.714 95.5496 24.2947C96.4611 23.8754 97.5186 23.6566 98.7218 23.6384V21.0678H102.441V23.6384C104.155 23.7295 105.522 24.3038 106.543 25.3612C107.582 26.4186 108.102 27.8042 108.102 29.518H104.383C104.383 28.7522 104.173 28.1415 103.754 27.6857C103.334 27.2117 102.778 26.9747 102.086 26.9747H98.9953C98.2296 26.9747 97.6097 27.1388 97.1357 27.4669C96.6799 27.7951 96.452 28.2327 96.452 28.7796V29.518C96.452 30.4295 97.081 30.9947 98.339 31.2135L103.343 32.0886ZM116.832 43.2188C114.827 43.2188 113.259 42.6627 112.129 41.5506C110.998 40.4203 110.433 38.8524 110.433 36.8469H114.152C114.152 37.795 114.389 38.5424 114.863 39.0894C115.356 39.6181 116.03 39.8824 116.887 39.8824H119.923C120.725 39.8824 121.372 39.7184 121.864 39.3902C122.375 39.0438 122.63 38.588 122.63 38.0229V37.0931C122.63 36.1997 121.974 35.6437 120.661 35.4249L115.629 34.5771C113.988 34.3037 112.739 33.7841 111.883 33.0184C111.044 32.2344 110.625 31.2408 110.625 30.0376V28.5061C110.625 27.5399 110.88 26.6921 111.39 25.9629C111.919 25.2154 112.657 24.6411 113.605 24.24C114.572 23.8389 115.684 23.6384 116.942 23.6384H120.032C121.217 23.6384 122.265 23.8845 123.177 24.3767C124.088 24.869 124.79 25.5618 125.283 26.4551C125.793 27.3302 126.048 28.3512 126.048 29.518H122.329C122.329 28.7522 122.119 28.1415 121.7 27.6857C121.281 27.2117 120.725 26.9747 120.032 26.9747H116.942C116.176 26.9747 115.556 27.1388 115.082 27.4669C114.626 27.7951 114.398 28.2327 114.398 28.7796V29.518C114.398 30.4295 115.027 30.9947 116.285 31.2135L121.29 32.0886C122.949 32.3803 124.216 32.8999 125.091 33.6473C125.966 34.3766 126.404 35.3246 126.404 36.4914V38.2963C126.404 39.2626 126.13 40.1195 125.583 40.8669C125.055 41.6144 124.307 42.1978 123.341 42.6171C122.375 43.0182 121.253 43.2188 119.977 43.2188H116.832ZM129.036 23.8571H132.4L141.588 36.8743V23.8571H145.28V43H141.916L132.728 29.9829V43H129.036V23.8571ZM159.877 38.5424H152.712L151.017 43H147.079L154.572 23.8571H156.267C157.452 23.8571 158.254 24.4041 158.674 25.498L165.483 43H161.545L159.877 38.5424ZM153.724 35.3702H158.865L156.322 28.4788H156.295L153.724 35.3702ZM167.552 23.8571H171.326V43H167.552V23.8571ZM177.65 43C176.847 43 176.2 42.7721 175.708 42.3163C175.234 41.8423 174.997 41.2224 174.997 40.4567V23.8571H178.771V39.7184H189.163V43H177.65Z" fill="white"/>
<rect x="1" y="1" width="220" height="64" rx="23" stroke="url(#paint5_linear_1817_9632)" stroke-width="2"/>
</g>
<defs>
<filter id="filter0_f_1817_9632" x="23" y="37" width="65.6094" height="89.3057" filterUnits="userSpaceOnUse" color-interpolation-filters="sRGB">
<feFlood flood-opacity="0" result="BackgroundImageFix"/>
<feBlend mode="normal" in="SourceGraphic" in2="BackgroundImageFix" result="shape"/>
<feGaussianBlur stdDeviation="11" result="effect1_foregroundBlur_1817_9632"/>
</filter>
<filter id="filter1_b_1817_9632" x="60" y="53" width="28.8884" height="55.6587" filterUnits="userSpaceOnUse" color-interpolation-filters="sRGB">
<feFlood flood-opacity="0" result="BackgroundImageFix"/>
<feGaussianBlur in="BackgroundImageFix" stdDeviation="3"/>
<feComposite in2="SourceAlpha" operator="in" result="effect1_backgroundBlur_1817_9632"/>
<feBlend mode="normal" in="SourceGraphic" in2="effect1_backgroundBlur_1817_9632" result="shape"/>
</filter>
<filter id="filter2_f_1817_9632" x="139" y="34.6078" width="66.5786" height="90.3922" filterUnits="userSpaceOnUse" color-interpolation-filters="sRGB">
<feFlood flood-opacity="0" result="BackgroundImageFix"/>
<feBlend mode="normal" in="SourceGraphic" in2="BackgroundImageFix" result="shape"/>
<feGaussianBlur stdDeviation="11" result="effect1_foregroundBlur_1817_9632"/>
</filter>
<filter id="filter3_b_1817_9632" x="136" y="52.3165" width="29.8796" height="56.6835" filterUnits="userSpaceOnUse" color-interpolation-filters="sRGB">
<feFlood flood-opacity="0" result="BackgroundImageFix"/>
<feGaussianBlur in="BackgroundImageFix" stdDeviation="3"/>
<feComposite in2="SourceAlpha" operator="in" result="effect1_backgroundBlur_1817_9632"/>
<feBlend mode="normal" in="SourceGraphic" in2="effect1_backgroundBlur_1817_9632" result="shape"/>
</filter>
<filter id="filter4_b_1817_9632" x="-6" y="-6" width="234" height="78" filterUnits="userSpaceOnUse" color-interpolation-filters="sRGB">
<feFlood flood-opacity="0" result="BackgroundImageFix"/>
<feGaussianBlur in="BackgroundImageFix" stdDeviation="3"/>
<feComposite in2="SourceAlpha" operator="in" result="effect1_backgroundBlur_1817_9632"/>
<feBlend mode="normal" in="SourceGraphic" in2="effect1_backgroundBlur_1817_9632" result="shape"/>
</filter>
<linearGradient id="paint0_linear_1817_9632" x1="59.894" y1="58.963" x2="44.7402" y2="58.7726" gradientUnits="userSpaceOnUse">
<stop stop-color="#339AFC"/>
<stop offset="1" stop-color="#9D5BE0"/>
</linearGradient>
<linearGradient id="paint1_linear_1817_9632" x1="80.894" y1="58.963" x2="65.7402" y2="58.7726" gradientUnits="userSpaceOnUse">
<stop stop-color="#339AFC"/>
<stop offset="1" stop-color="#9D5BE0"/>
</linearGradient>
<linearGradient id="paint2_linear_1817_9632" x1="160.895" y1="59.0384" x2="148.923" y2="68.3987" gradientUnits="userSpaceOnUse">
<stop stop-color="#339AFC"/>
<stop offset="1" stop-color="#9D5BE0"/>
</linearGradient>
<linearGradient id="paint3_linear_1817_9632" x1="141.895" y1="59.0384" x2="129.923" y2="68.3987" gradientUnits="userSpaceOnUse">
<stop stop-color="#339AFC"/>
<stop offset="1" stop-color="#9D5BE0"/>
</linearGradient>
<linearGradient id="paint4_linear_1817_9632" x1="0" y1="0" x2="179.753" y2="126.183" gradientUnits="userSpaceOnUse">
<stop stop-color="#4E65FD"/>
<stop offset="1" stop-color="#3948AF"/>
</linearGradient>
<linearGradient id="paint5_linear_1817_9632" x1="-1.69958e-06" y1="7.40817" x2="221.898" y2="56.3605" gradientUnits="userSpaceOnUse">
<stop stop-color="#339AFC"/>
<stop offset="1" stop-color="#9D5BE0"/>
</linearGradient>
</defs>
</svg>
