<svg width="27" height="23" viewBox="0 0 27 23" fill="none" xmlns="http://www.w3.org/2000/svg">
<path fill-rule="evenodd" clip-rule="evenodd" d="M18.97 3.01828L15.3853 2.23897L14.5538 7.11912C17.0399 7.26838 19.3128 7.96708 21.0747 9.05828C21.6378 8.5304 22.4023 8.20503 23.2452 8.20503C24.9777 8.20503 26.3822 9.57898 26.3822 11.2739C26.3822 12.4802 25.6713 13.5228 24.6371 14.0246C24.6596 14.2215 24.6711 14.4207 24.6711 14.6217C24.6711 16.8375 23.294 18.7412 21.2831 20.0526C19.2663 21.368 16.5293 22.1543 13.5489 22.1543C10.5685 22.1543 7.83153 21.368 5.81469 20.0526C3.80384 18.7412 2.42668 16.8375 2.42668 14.6217C2.42668 14.4207 2.43816 14.2215 2.46064 14.0246C1.42647 13.5228 0.715576 12.4802 0.715576 11.2739C0.715576 9.57898 2.12008 8.20503 3.85261 8.20503C4.69549 8.20503 5.46008 8.53039 6.02307 9.05828C7.85035 7.92659 10.2273 7.2171 12.8216 7.10479L13.8458 1.0928C13.8844 0.866182 14.0165 0.665055 14.2112 0.536566C14.4059 0.408076 14.6461 0.363528 14.8752 0.413366L19.4696 1.41213C19.9371 0.794114 20.6877 0.393435 21.5341 0.393435C22.9515 0.393435 24.1007 1.51759 24.1007 2.9043C24.1007 4.29102 22.9515 5.41517 21.5341 5.41517C20.1556 5.41517 19.0309 4.35209 18.97 3.01828ZM8.98593 14.6217C9.93096 14.6217 10.697 13.8722 10.697 12.9478C10.697 12.0233 9.93096 11.2739 8.98593 11.2739C8.04091 11.2739 7.27483 12.0233 7.27483 12.9478C7.27483 13.8722 8.04091 14.6217 8.98593 14.6217ZM19.823 12.9478C19.823 13.8722 19.0568 14.6217 18.1118 14.6217C17.1669 14.6217 16.4007 13.8722 16.4007 12.9478C16.4007 12.0233 17.1669 11.2739 18.1118 11.2739C19.0568 11.2739 19.823 12.0233 19.823 12.9478ZM10.2681 16.9474C10.006 16.5628 9.47483 16.4589 9.08168 16.7152C8.68853 16.9716 8.58229 17.4913 8.84439 17.8759C9.19342 18.3881 9.84249 18.7444 10.5778 18.9757C11.3467 19.2175 12.3415 19.3646 13.5489 19.3646C14.7562 19.3646 15.751 19.2175 16.5199 18.9757C17.2551 18.7444 17.9042 18.3881 18.2533 17.8759C18.5154 17.4913 18.4091 16.9716 18.016 16.7152C17.6228 16.4589 17.0917 16.5628 16.8295 16.9474C16.7984 16.9932 16.5918 17.1947 15.9963 17.3821C15.4343 17.5587 14.623 17.6906 13.5489 17.6906C12.4748 17.6906 11.6634 17.5587 11.1014 17.3821C10.5058 17.1947 10.2993 16.9932 10.2681 16.9474Z" fill="white"/>
</svg>
