<svg xmlns="http://www.w3.org/2000/svg" fill="none" viewBox="0 0 49 48"><g clip-path="url(#a)"><path d="M46.031 43.71c1.168-.022 1.576-.692 1.086-1.73-.49-1.037-1.27-1.873-2.19-2.543-.777-.569-1.576-.47-2.374-.042-1.288.691-2.292 1.69-3.151 2.83-.533.69-.288 1.24.613 1.322 1.044.081 5.075.183 6.016.162Z" fill="url(#b)"/><path d="M9.707 14.799c-.163 1.545-.103 3.052.532 4.495.224.487.472 1.08 1.086 1.058.675-.02.756-.67.901-1.178.86-3.175 2.271-6.044 4.788-8.24.799-.712 1.74-1.28 2.538-1.972.592-.508 1.249-1.14.798-2.014-.408-.815-1.228-.896-2.066-.854-4.645.222-8.024 3.64-8.574 8.707l-.003-.002Z" fill="url(#c)"/><path d="M5.185 8.49a7.23 7.23 0 0 0-.206 1.75c0 1.18.143 2.319.656 3.42.246.528.636 1.058 1.31.976.656-.08.593-.712.675-1.178.51-2.502 1.146-4.944 3.172-6.736.614-.55 1.331-.998 1.985-1.506.347-.285.798-.55.716-1.08-.103-.61-.614-.874-1.167-.997-1.658-.388-3.152.06-4.461 1.058-1.452 1.119-2.272 2.604-2.68 4.294Z" fill="url(#d)"/><path d="M10.237 19.294c.042.102.081.204.142.304-.39-1.443-.245-2.89.082-4.333 1.185-4.943 4.972-7.914 9.66-7.59.124 0 .245.022.369.043.06-.244.02-.508-.124-.794-.409-.794-1.228-.896-2.066-.854-4.688.244-8.063 3.683-8.617 8.729-.142 1.545-.081 3.052.554 4.495Z" fill="url(#e)" opacity=".5"/><path d="M4.977 10.24c0 1.18.143 2.319.656 3.42.124.243.267.508.472.69a2.535 2.535 0 0 1-.306-.772c-.266-1.179-.163-2.318.103-3.479a7.07 7.07 0 0 1 .572-1.669c.777-1.566 1.903-2.829 3.56-3.602 1.125-.529 2.313-.712 3.478-.469v-.222c-.103-.61-.614-.875-1.167-.998-1.658-.388-3.152.06-4.461 1.058C6.432 5.295 5.612 6.78 5.183 8.47a7.51 7.51 0 0 0-.206 1.77Z" fill="url(#f)" opacity=".5"/><path d="M3.196 16.934c3.009-.713 4.092 2.117 9.209 9.441 0 0 .983 1.648 2.928 3.804 3.09 3.44 8.677 8.179 16.74 9.826 1.125.223 2.314.406 3.56.488 2.148.162 3.52 0 4.277-.388-.82.53-2.804 1.323-2.804 1.323-8.145 2.848-17.191 2.462-25.09-1.2-15.574-8.14-11.83-22.605-8.82-23.297v.003Z" fill="url(#g)"/><path d="M11.997 40.21c7.9 3.662 16.946 4.068 25.112 1.22 0 0 1.984-.793 2.804-1.322-7.226 3.073-18.195 1.2-24.538-1.73C2.89 31.869 2.83 21.268 4.856 16.977c-.511-.162-1.044-.162-1.657-.02-3.01.67-6.754 15.136 8.8 23.254h-.002Z" fill="url(#h)" opacity=".5"/><path d="M11.996 40.21a33.363 33.363 0 0 0 14.143 3.093 33.21 33.21 0 0 1-13.855-3.093C-3.271 32.09.454 17.625 3.483 16.934c.245-.06.49-.102.716-.102a3.355 3.355 0 0 0-.983.102c-3.027.691-6.774 15.157 8.78 23.276Z" fill="#fff" opacity=".5" style="mix-blend-mode:overlay"/><path d="M14.74 25.317c0 1.69 1.575 4.273 5.217 7.67 4.851 4.538 12.116 7 12.116 7a27.39 27.39 0 0 0 3.56.487c2.147.163 3.52 0 4.276-.387.043-.021.103-.06.143-.081h.02c3.213-2.054-7.306-9.34-12.033-12.43-6.938-3.663-11.705-4.842-12.79-3.642a2.026 2.026 0 0 0-.512 1.383h.003Z" fill="url(#i)"/><path d="M14.74 25.317c0 1.69 1.575 4.273 5.217 7.67 4.851 4.538 12.116 7 12.116 7a27.39 27.39 0 0 0 3.56.487c2.147.163 3.52 0 4.276-.387.043-.021.103-.06.143-.081h.02c3.213-2.054-7.306-9.34-12.033-12.43-6.938-3.663-11.705-4.842-12.79-3.642a2.026 2.026 0 0 0-.512 1.383h.003Z" fill="url(#j)" opacity=".77"/><path d="M25.177 10.1c-2.232 1.16 2.108 6.145 7.858 10.153.02 0 .02.021.042.021a43.727 43.727 0 0 0 4.461 2.727c7.673 4.03 10.377.406 9.21-1.241 0 0-.061-.103-.246-.304l-.02-.021-.043-.042c-.369-.367-1.104-.998-2.498-1.73-2.25-1.178-2.559-1.626-2.559-1.626-.656-.223-1.39-.569-2.21-1.058-4.788-2.869-10.643-7.854-13.59-7.06-.123.06-.265.123-.408.183.014-.014.014-.014 0 0l.003-.003Z" fill="url(#k)"/><path d="M25.177 10.1c-2.232 1.16 2.108 6.145 7.858 10.153.02 0 .02.021.042.021a43.727 43.727 0 0 0 4.461 2.727c7.673 4.03 10.377.406 9.21-1.241 0 0-.061-.103-.246-.304l-.02-.021-.043-.042c-.369-.367-1.104-.998-2.498-1.73-2.25-1.178-2.559-1.626-2.559-1.626-.656-.223-1.39-.569-2.21-1.058-4.788-2.869-10.643-7.854-13.59-7.06-.123.06-.265.123-.408.183.014-.014.014-.014 0 0l.003-.003Z" fill="url(#l)" opacity=".5"/><path d="M28.041 27.575a86.677 86.677 0 0 1 4.359 2.483c9.27 5.575 12.545 3.094 13.876 1.934 1.288-1.119 1.74-3.133 1.781-3.275 1.494-4.802-1.249-6.937-1.533-7.264.184.183.245.304.245.304 1.146 1.647-1.555 5.289-9.21 1.241a42.016 42.016 0 0 1-4.46-2.727s-.022-.02-.043-.02c-.593-.407-6.611-4.538-10.029-5.698-3.52-1.2-5.668 2.053-5.792 2.237-1.636 2.604-2.413 5.575-2.477 8.545 0-.55.164-1.016.49-1.383 1.086-1.22 5.853-.042 12.79 3.62l.003.003Z" fill="url(#m)"/><path d="M14.74 25.317c0-.55.163-1.017.49-1.383 1.104-1.2 5.852-.042 12.79 3.641a86.648 86.648 0 0 1 4.359 2.483c9.27 5.575 12.545 3.094 13.876 1.934 1.288-1.119 1.74-3.133 1.781-3.275a8.906 8.906 0 0 0 .45-2.727c-.305.692-.858 1.69-1.678 2.3-1.412 1.059-4.85 3.317-13.712-2.847a112.254 112.254 0 0 0-4.195-2.767c-3.542-2.198-6.53-3.641-8.72-4.333-2.047-.652-4.237.509-4.809 2.583a17.794 17.794 0 0 0-.635 4.396l.003-.005Z" fill="url(#n)" opacity=".5"/><path d="M14.764 25.338c0 1.634 1.473 4.084 4.861 7.335.116.11.235.223.356.335l.063.058a11.352 11.352 0 0 0 .388.351c.152.136.308.27.463.398a22.494 22.494 0 0 0 .978.778c2.972 2.248 6.319 3.828 8.345 4.674-2.495-1.085-6.83-3.254-10.074-6.358-3.602-3.46-5.135-6.065-5.117-7.755 0-.526.166-.956.45-1.302a1.15 1.15 0 0 1 .575-.303c.899-.176 2.348.036 4.25.639-2.666-.846-4.442-.927-5.048-.254-.266.296-.438.66-.493 1.08v.01c-.008.096-.005.201.003.314Z" fill="url(#o)"/><path d="M14.761 25.04c.045-.43.203-.805.472-1.106 1.051-1.145 5.417-.142 11.831 3.143.314.163.635.328.96.5.207.11.418.226.632.341a85.646 85.646 0 0 1 3.728 2.14c.417.252.822.485 1.215.705.917.508 1.768.935 2.561 1.289l.006.002c6.303 2.804 8.861.98 10.026-.005.02-.02.045-.039.066-.057.19-.17.363-.354.519-.553a3.61 3.61 0 0 1-.335.33c-1.33 1.158-4.603 3.641-13.876-1.933a87.56 87.56 0 0 0-4.358-2.484c-6.261-3.316-10.785-4.597-12.422-3.927 0 0-.759.226-.962 1.182v.04a1.53 1.53 0 0 0-.063.392Z" fill="url(#p)"/><path d="M24.585 11.092a.928.928 0 0 0 .008.157c.208 1.934 3.596 5.515 7.891 8.595-4.637-3.502-8.173-7.565-7.747-9.344a1.113 1.113 0 0 0-.152.592Z" fill="url(#q)"/><path d="M25.586 9.937c2.967-.815 8.8 4.191 13.589 7.06.82.487 1.554.833 2.21 1.058.838.286 1.555.388 2.148.388h.287c.082 0 .142-.02.206-.02h.06c.06 0 .124-.022.185-.022.06-.02.124-.02.184-.042.082-.02.185-.042.266-.06a4.89 4.89 0 0 1 .185-.06 5.28 5.28 0 0 1 .184-.06.67.67 0 0 0 .164-.082c.635-.304.94-.67.94-.67a16.29 16.29 0 0 0-2.782-3.642c-4.727-4.7-11.542-6.022-17.457-3.966.02-.02-.224.06-.37.123v-.005Z" fill="url(#r)"/><path d="M25.586 9.937c2.967-.815 8.8 4.191 13.589 7.06.82.487 1.554.833 2.21 1.058.838.286 1.555.388 2.148.388h.287c.082 0 .142-.02.206-.02h.06c.06 0 .124-.022.185-.022.06-.02.124-.02.184-.042.082-.02.185-.042.266-.06.061-.02.124-.042.185-.06a4.89 4.89 0 0 1 .184-.06.592.592 0 0 0 .164-.082c.614-.285.9-.631.94-.67a9 9 0 0 1-.859-.244c-.674-.223-1.412-.568-2.232-1.058-4.4-2.625-9.68-7.06-12.85-7.202a16.928 16.928 0 0 0-4.298.875c.02 0-.245.081-.37.142v-.003Z" fill="url(#s)" opacity=".7" style="mix-blend-mode:overlay"/><path d="M25.585 9.937c2.968-.815 8.801 4.191 13.59 7.06.819.487 1.554.833 2.21 1.058.838.285 1.555.388 2.148.388h.287c.082 0 .142-.021.206-.021h.06c.06 0 .124-.021.185-.021.06-.021.123-.021.184-.042.082-.021.184-.042.266-.06.06-.021.124-.042.185-.06.06-.022.123-.043.184-.06a.679.679 0 0 0 .163-.082c-.777.285-1.965.427-3.623-.142-.656-.222-1.391-.568-2.21-1.058-4.728-2.83-10.48-7.73-13.466-7.08.021-.022-.224.06-.369.122v-.002Z" fill="url(#t)"/></g><defs><linearGradient id="b" x1="44.387" x2="40.902" y1="44.967" y2="38.09" gradientUnits="userSpaceOnUse"><stop stop-color="#4AD2D3"/><stop offset=".4" stop-color="#4AD2D3"/><stop offset="1" stop-color="#88F1DA"/></linearGradient><linearGradient id="c" x1="9.773" x2="17.752" y1="17.031" y2="8.012" gradientUnits="userSpaceOnUse"><stop stop-color="#4AD2D3"/><stop offset="1" stop-color="#70F0D4"/></linearGradient><linearGradient id="d" x1="4.668" x2="12.648" y1="12.514" y2="3.496" gradientUnits="userSpaceOnUse"><stop stop-color="#4AD2D3"/><stop offset="1" stop-color="#70F0D4"/></linearGradient><linearGradient id="e" x1="9.322" x2="17.223" y1="16.444" y2="7.512" gradientUnits="userSpaceOnUse"><stop stop-color="#fff"/><stop offset="1" stop-color="#fff" stop-opacity="0"/></linearGradient><linearGradient id="f" x1="4.3" x2="12.277" y1="12.184" y2="3.168" gradientUnits="userSpaceOnUse"><stop stop-color="#fff"/><stop offset="1" stop-color="#fff" stop-opacity="0"/></linearGradient><linearGradient id="g" x1="36.16" x2="-.426" y1="46.266" y2="22.678" gradientUnits="userSpaceOnUse"><stop stop-color="#009194"/><stop offset=".13" stop-color="#06999B"/><stop offset=".34" stop-color="#17AFB1"/><stop offset=".51" stop-color="#28C6C7"/><stop offset="1" stop-color="#3FE8C3"/></linearGradient><linearGradient id="h" x1="-.875" x2="36.212" y1="22.946" y2="45.897" gradientUnits="userSpaceOnUse"><stop stop-color="#FFF2BF"/><stop offset=".86" stop-color="#fff" stop-opacity="0"/></linearGradient><linearGradient id="i" x1="30.476" x2="24.085" y1="28.694" y2="36.354" gradientUnits="userSpaceOnUse"><stop stop-color="#0B23AD"/><stop offset="1" stop-color="#4F66FF"/></linearGradient><linearGradient id="j" x1="29.364" x2="25.789" y1="27.279" y2="37.724" gradientUnits="userSpaceOnUse"><stop stop-color="#01010A"/><stop offset=".38" stop-color="#0F1875" stop-opacity=".32"/><stop offset="1" stop-color="#1724A7" stop-opacity="0"/></linearGradient><linearGradient id="k" x1="34.937" x2="36.471" y1="23.774" y2="11.216" gradientUnits="userSpaceOnUse"><stop stop-color="#0B23AD"/><stop offset="1" stop-color="#4F66FF"/></linearGradient><linearGradient id="l" x1="39.153" x2="32.707" y1="26.577" y2="7.75" gradientUnits="userSpaceOnUse"><stop stop-color="#020212"/><stop offset=".13" stop-color="#080C40" stop-opacity=".69"/><stop offset=".5" stop-color="#131E8E" stop-opacity=".16"/><stop offset="1" stop-color="#1724A7" stop-opacity="0"/></linearGradient><linearGradient id="m" x1="47.188" x2="17.343" y1="31.088" y2="17.049" gradientUnits="userSpaceOnUse"><stop stop-color="#2E51FF"/><stop offset="1" stop-color="#68E0FB"/></linearGradient><linearGradient id="n" x1="15.364" x2="47.081" y1="21.104" y2="30.648" gradientUnits="userSpaceOnUse"><stop stop-color="#fff"/><stop offset=".86" stop-color="#fff" stop-opacity="0"/></linearGradient><linearGradient id="o" x1="22.487" x2="22.487" y1="39.267" y2="23.483" gradientUnits="userSpaceOnUse"><stop stop-color="#B7C2F4"/><stop offset=".12" stop-color="#B0BCF4" stop-opacity=".98"/><stop offset=".31" stop-color="#9FABF4" stop-opacity=".91"/><stop offset=".53" stop-color="#8391F4" stop-opacity=".79"/><stop offset=".79" stop-color="#5D6DF4" stop-opacity=".64"/><stop offset="1" stop-color="#3A4CF5" stop-opacity=".5"/></linearGradient><linearGradient id="p" x1="46.777" x2="14.761" y1="28.4" y2="28.4" gradientUnits="userSpaceOnUse"><stop stop-color="#77B2F9" stop-opacity=".4"/><stop offset=".11" stop-color="#7BB4F9" stop-opacity=".42"/><stop offset=".27" stop-color="#89BDF9" stop-opacity=".49"/><stop offset=".47" stop-color="#9ECAFB" stop-opacity=".61"/><stop offset=".7" stop-color="#BCDCFC" stop-opacity=".76"/><stop offset=".95" stop-color="#E2F3FE" stop-opacity=".96"/><stop offset="1" stop-color="#EBF9FF"/></linearGradient><linearGradient id="q" x1="28.532" x2="28.532" y1="19.844" y2="10.5" gradientUnits="userSpaceOnUse"><stop stop-color="#405CE2"/><stop offset="1" stop-color="#7D99F5" stop-opacity=".5"/></linearGradient><linearGradient id="r" x1="46.597" x2="26.073" y1="16.648" y2="8.997" gradientUnits="userSpaceOnUse"><stop stop-color="#E6A9FF"/><stop offset="1" stop-color="#BE53FC"/></linearGradient><linearGradient id="s" x1="44.529" x2="28.034" y1="18.941" y2="8.78" gradientUnits="userSpaceOnUse"><stop stop-color="#DEB5FF"/><stop offset=".86" stop-color="#fff" stop-opacity="0"/></linearGradient><linearGradient id="t" x1="45.253" x2="25.585" y1="14.097" y2="14.097" gradientUnits="userSpaceOnUse"><stop stop-color="#FDFDFD"/><stop offset="1" stop-color="#CB70FF"/></linearGradient><clipPath id="a"><path d="M48.5 0H.5v48h48z" fill="#fff"/></clipPath></defs></svg>