<svg xmlns="http://www.w3.org/2000/svg" fill="none" viewBox="0 0 50 44"><g clip-path="url(#a)"><path d="M2.962 42.999c-1.205-.022-1.626-.714-1.12-1.784.505-1.07 1.31-1.933 2.259-2.625.802-.586 1.626-.483 2.45-.043 1.329.714 2.364 1.743 3.25 2.92.55.713.297 1.28-.633 1.364-1.076.084-5.236.19-6.206.168Z" fill="url(#b)"/><path d="M40.437 13.171c.169 1.595.106 3.15-.549 4.638-.231.503-.486 1.114-1.12 1.092-.696-.021-.78-.692-.93-1.216-.886-3.276-2.343-6.235-4.94-8.5-.823-.735-1.794-1.322-2.617-2.035-.612-.524-1.289-1.176-.824-2.078.421-.841 1.267-.925 2.131-.882 4.793.23 8.278 3.757 8.847 8.984l.002-.002Z" fill="url(#c)"/><path d="M45.102 6.663c.147.587.212 1.198.212 1.806 0 1.216-.147 2.392-.677 3.527-.253.546-.655 1.092-1.35 1.008-.678-.084-.612-.735-.697-1.216-.527-2.581-1.182-5.1-3.273-6.949-.633-.568-1.373-1.03-2.047-1.554-.359-.295-.824-.568-.74-1.114.106-.63.634-.902 1.205-1.03 1.71-.4 3.251.063 4.602 1.093 1.498 1.154 2.344 2.686 2.765 4.43Z" fill="url(#d)"/><path d="M39.89 17.81c-.043.105-.083.21-.146.313.402-1.49.253-2.981-.084-4.47-1.224-5.1-5.13-8.165-9.966-7.83-.128 0-.253.022-.381.043-.063-.251-.022-.524.128-.819.421-.819 1.267-.924 2.131-.88 4.836.25 8.319 3.8 8.89 9.005.146 1.594.084 3.148-.571 4.637Z" fill="url(#e)" opacity=".5"/><path d="M45.317 8.469c0 1.216-.147 2.392-.677 3.527-.128.251-.274.524-.486.713a2.65 2.65 0 0 0 .315-.797c.274-1.216.169-2.392-.106-3.59a7.295 7.295 0 0 0-.59-1.72c-.802-1.617-1.963-2.92-3.673-3.717-1.16-.546-2.387-.735-3.588-.484v-.23c.106-.63.633-.902 1.204-1.03 1.71-.4 3.251.063 4.602 1.093 1.498 1.132 2.344 2.665 2.787 4.408.147.608.212 1.216.212 1.827Z" fill="url(#f)" opacity=".5"/><path d="M47.155 15.374c-3.105-.735-4.222 2.184-9.501 9.74 0 0-1.014 1.7-3.02 3.925-3.19 3.549-8.953 8.438-17.272 10.138a28.35 28.35 0 0 1-3.672.503c-2.216.167-3.633 0-4.413-.4.846.546 2.893 1.364 2.893 1.364 8.403 2.938 17.736 2.541 25.886-1.237 16.067-8.398 12.204-23.322 9.099-24.035v.002Z" fill="url(#g)"/><path d="M38.075 39.388c-8.15 3.778-17.483 4.197-25.908 1.26 0 0-2.047-.82-2.893-1.366 7.455 3.17 18.772 1.238 25.316-1.783 12.88-6.717 12.943-17.655 10.852-22.082.528-.167 1.077-.167 1.71-.021 3.105.692 6.968 15.616-9.08 23.992h.003Z" fill="url(#h)" opacity=".5"/><path d="M38.075 39.388a34.42 34.42 0 0 1-14.59 3.192 34.26 34.26 0 0 0 14.294-3.192c16.047-8.376 12.203-23.3 9.08-24.014a3.171 3.171 0 0 0-.74-.105c.316-.022.655.021 1.014.105 3.124.714 6.99 15.638-9.058 24.014Z" fill="#fff" opacity=".5" style="mix-blend-mode:overlay"/><path d="M35.245 24.023c0 1.743-1.626 4.408-5.383 7.913-5.005 4.681-12.5 7.222-12.5 7.222a28.35 28.35 0 0 1-3.672.503c-2.216.167-3.633 0-4.413-.4-.043-.022-.106-.063-.147-.084h-.02c-3.314-2.119 7.538-9.635 12.415-12.824 7.158-3.779 12.076-4.995 13.196-3.757.337.378.528.86.528 1.427h-.003Z" fill="url(#i)"/><path d="M35.245 24.023c0 1.743-1.626 4.408-5.383 7.913-5.005 4.681-12.5 7.222-12.5 7.222a28.35 28.35 0 0 1-3.672.503c-2.216.167-3.633 0-4.413-.4-.043-.022-.106-.063-.147-.084h-.02c-3.314-2.119 7.538-9.635 12.415-12.824 7.158-3.779 12.076-4.995 13.196-3.757.337.378.528.86.528 1.427h-.003Z" fill="url(#j)" opacity=".77"/><path d="M24.476 8.323c2.303 1.197-2.174 6.34-8.106 10.476-.022 0-.022.021-.044.021a45.109 45.109 0 0 1-4.602 2.814c-7.917 4.156-10.706.419-9.502-1.281 0 0 .063-.106.253-.314l.022-.022.043-.043c.38-.378 1.14-1.03 2.577-1.784 2.322-1.216 2.64-1.678 2.64-1.678.677-.23 1.436-.586 2.281-1.092 4.94-2.96 10.98-8.103 14.02-7.284.128.063.274.127.421.19-.014-.015-.014-.015 0 0l-.003-.003Z" fill="url(#k)"/><path d="M24.476 8.323c2.303 1.197-2.174 6.34-8.106 10.476-.022 0-.022.021-.044.021a45.109 45.109 0 0 1-4.602 2.814c-7.917 4.156-10.706.419-9.502-1.281 0 0 .063-.106.253-.314l.022-.022.043-.043c.38-.378 1.14-1.03 2.577-1.784 2.322-1.216 2.64-1.678 2.64-1.678.677-.23 1.436-.586 2.281-1.092 4.94-2.96 10.98-8.103 14.02-7.284.128.063.274.127.421.19-.014-.015-.014-.015 0 0l-.003-.003Z" fill="url(#l)" opacity=".5"/><path d="M21.521 26.353a89.464 89.464 0 0 0-4.496 2.562c-9.564 5.751-12.943 3.192-14.316 1.994-1.33-1.154-1.794-3.232-1.838-3.378-1.541-4.954 1.289-7.157 1.583-7.495-.19.19-.253.314-.253.314-1.183 1.7 1.604 5.457 9.501 1.281a43.386 43.386 0 0 0 4.603-2.814s.021-.021.043-.021c.612-.42 6.821-4.681 10.347-5.878 3.632-1.238 5.848 2.118 5.975 2.308 1.689 2.686 2.49 5.75 2.556 8.816 0-.568-.169-1.049-.506-1.427-1.12-1.26-6.038-.043-13.196 3.735l-.003.003Z" fill="url(#m)"/><path d="M35.245 24.023c0-.568-.169-1.049-.506-1.427-1.139-1.238-6.038-.043-13.196 3.757a89.42 89.42 0 0 0-4.496 2.562C7.483 34.666 4.104 32.107 2.73 30.909 1.4 29.755.937 27.677.893 27.531a9.19 9.19 0 0 1-.465-2.813c.316.713.886 1.743 1.732 2.372 1.457 1.092 5.005 3.422 14.147-2.937a116.17 116.17 0 0 1 4.328-2.854c3.654-2.268 6.737-3.757 8.996-4.47 2.112-.674 4.371.524 4.961 2.664.403 1.49.634 3.003.656 4.535l-.003-.005Z" fill="url(#n)" opacity=".5"/><path d="M35.22 24.044c0 1.687-1.52 4.214-5.015 7.568-.12.114-.242.23-.367.346l-.066.06a11.735 11.735 0 0 1-.4.361 23.281 23.281 0 0 1-1.487 1.214c-3.066 2.319-6.518 3.949-8.61 4.822 2.575-1.12 7.047-3.357 10.394-6.56 3.716-3.57 5.298-6.257 5.28-8a2.05 2.05 0 0 0-.465-1.343 1.182 1.182 0 0 0-.593-.314c-.927-.18-2.422.038-4.385.66 2.751-.873 4.583-.957 5.209-.262.274.305.45.68.508 1.113v.011c.008.1.005.208-.003.324Z" fill="url(#o)"/><path d="M35.223 23.736a1.988 1.988 0 0 0-.487-1.14c-1.084-1.181-5.59-.146-12.206 3.243-.324.168-.655.338-.99.516-.214.114-.432.233-.652.352a88.072 88.072 0 0 0-3.727 2.138 44.462 44.462 0 0 1-1.373.797c-.946.524-1.824.965-2.643 1.33l-.005.002c-6.503 2.892-9.143 1.011-10.344-.005-.022-.022-.046-.04-.068-.06a4.435 4.435 0 0 1-.536-.57c.104.12.22.23.346.34 1.373 1.195 4.749 3.758 14.316-1.994a90.377 90.377 0 0 1 4.496-2.562c6.46-3.422 11.127-4.743 12.815-4.051 0 0 .783.232.993 1.218v.041c.038.124.06.26.065.405Z" fill="url(#p)"/><path d="M25.088 9.347a.934.934 0 0 1-.008.162c-.215 1.995-3.71 5.69-8.142 8.868 4.785-3.613 8.433-7.805 7.993-9.64.106.172.157.378.157.61Z" fill="url(#q)"/><path d="M24.055 8.155c-3.06-.84-9.08 4.325-14.02 7.284-.845.503-1.603.86-2.28 1.092-.865.295-1.604.4-2.216.4h-.296c-.084 0-.147-.022-.212-.022h-.063c-.062 0-.127-.021-.19-.021-.063-.022-.128-.022-.19-.044-.085-.021-.19-.043-.275-.062a5.21 5.21 0 0 0-.19-.062 5.027 5.027 0 0 0-.19-.062.696.696 0 0 1-.169-.084c-.655-.313-.97-.692-.97-.692a16.806 16.806 0 0 1 2.87-3.756c4.877-4.85 11.908-6.214 18.01-4.092-.021-.022.232.062.381.127v-.006Z" fill="url(#r)"/><path d="M24.055 8.155c-3.06-.84-9.08 4.325-14.02 7.284-.845.503-1.603.86-2.28 1.092-.865.295-1.604.4-2.216.4h-.296c-.084 0-.147-.022-.212-.022h-.063c-.062 0-.127-.021-.19-.021-.063-.022-.128-.022-.19-.044-.085-.021-.19-.043-.275-.062a5.21 5.21 0 0 0-.19-.062 5.027 5.027 0 0 0-.19-.062.61.61 0 0 1-.169-.084c-.633-.294-.93-.651-.97-.692.274-.062.57-.146.886-.251.696-.23 1.457-.587 2.302-1.092 4.54-2.708 9.988-7.284 13.259-7.43a17.46 17.46 0 0 1 4.434.903c-.022 0 .252.084.38.146v-.003Z" fill="url(#s)" opacity=".7" style="mix-blend-mode:overlay"/><path d="M24.055 8.155c-3.061-.84-9.08 4.325-14.02 7.284-.845.503-1.604.86-2.28 1.092-.865.295-1.604.4-2.216.4h-.296c-.085 0-.147-.022-.212-.022h-.063c-.063 0-.128-.021-.19-.021-.063-.022-.128-.022-.19-.044-.085-.021-.19-.043-.275-.062a5.198 5.198 0 0 0-.19-.062 5.015 5.015 0 0 0-.19-.062.697.697 0 0 1-.17-.084c.803.295 2.029.44 3.739-.146.677-.23 1.435-.586 2.28-1.092 4.878-2.918 10.812-7.975 13.892-7.305-.021-.022.232.062.381.127v-.003Z" fill="url(#t)"/></g><defs><linearGradient id="b" x1="4.658" x2="8.254" y1="44.296" y2="37.2" gradientUnits="userSpaceOnUse"><stop stop-color="#4AD2D3"/><stop offset=".4" stop-color="#4AD2D3"/><stop offset="1" stop-color="#88F1DA"/></linearGradient><linearGradient id="c" x1="40.369" x2="32.137" y1="15.474" y2="6.17" gradientUnits="userSpaceOnUse"><stop stop-color="#4AD2D3"/><stop offset="1" stop-color="#70F0D4"/></linearGradient><linearGradient id="d" x1="45.635" x2="37.403" y1="10.815" y2="1.51" gradientUnits="userSpaceOnUse"><stop stop-color="#4AD2D3"/><stop offset="1" stop-color="#70F0D4"/></linearGradient><linearGradient id="e" x1="40.834" x2="32.683" y1="14.869" y2="5.654" gradientUnits="userSpaceOnUse"><stop stop-color="#fff"/><stop offset="1" stop-color="#fff" stop-opacity="0"/></linearGradient><linearGradient id="f" x1="46.016" x2="37.786" y1="10.474" y2="1.172" gradientUnits="userSpaceOnUse"><stop stop-color="#fff"/><stop offset="1" stop-color="#fff" stop-opacity="0"/></linearGradient><linearGradient id="g" x1="13.146" x2="50.892" y1="45.636" y2="21.301" gradientUnits="userSpaceOnUse"><stop stop-color="#009194"/><stop offset=".13" stop-color="#06999B"/><stop offset=".34" stop-color="#17AFB1"/><stop offset=".51" stop-color="#28C6C7"/><stop offset="1" stop-color="#3FE8C3"/></linearGradient><linearGradient id="h" x1="51.355" x2="13.093" y1="21.577" y2="45.255" gradientUnits="userSpaceOnUse"><stop stop-color="#FFF2BF"/><stop offset=".86" stop-color="#fff" stop-opacity="0"/></linearGradient><linearGradient id="i" x1="19.01" x2="25.603" y1="27.507" y2="35.41" gradientUnits="userSpaceOnUse"><stop stop-color="#0B23AD"/><stop offset="1" stop-color="#4F66FF"/></linearGradient><linearGradient id="j" x1="20.157" x2="23.845" y1="26.047" y2="36.823" gradientUnits="userSpaceOnUse"><stop stop-color="#01010A"/><stop offset=".38" stop-color="#0F1875" stop-opacity=".32"/><stop offset="1" stop-color="#1724A7" stop-opacity="0"/></linearGradient><linearGradient id="k" x1="14.407" x2="12.824" y1="22.431" y2="9.475" gradientUnits="userSpaceOnUse"><stop stop-color="#0B23AD"/><stop offset="1" stop-color="#4F66FF"/></linearGradient><linearGradient id="l" x1="10.057" x2="16.707" y1="25.323" y2="5.899" gradientUnits="userSpaceOnUse"><stop stop-color="#020212"/><stop offset=".13" stop-color="#080C40" stop-opacity=".69"/><stop offset=".5" stop-color="#131E8E" stop-opacity=".16"/><stop offset="1" stop-color="#1724A7" stop-opacity="0"/></linearGradient><linearGradient id="m" x1="1.768" x2="32.559" y1="29.977" y2="15.493" gradientUnits="userSpaceOnUse"><stop stop-color="#2E51FF"/><stop offset="1" stop-color="#68E0FB"/></linearGradient><linearGradient id="n" x1="34.6" x2="1.879" y1="19.677" y2="29.523" gradientUnits="userSpaceOnUse"><stop stop-color="#fff"/><stop offset=".86" stop-color="#fff" stop-opacity="0"/></linearGradient><linearGradient id="o" x1="27.252" x2="27.252" y1="38.415" y2="22.131" gradientUnits="userSpaceOnUse"><stop stop-color="#B7C2F4"/><stop offset=".12" stop-color="#B0BCF4" stop-opacity=".98"/><stop offset=".31" stop-color="#9FABF4" stop-opacity=".91"/><stop offset=".53" stop-color="#8391F4" stop-opacity=".79"/><stop offset=".79" stop-color="#5D6DF4" stop-opacity=".64"/><stop offset="1" stop-color="#3A4CF5" stop-opacity=".5"/></linearGradient><linearGradient id="p" x1="2.192" x2="35.223" y1="27.204" y2="27.204" gradientUnits="userSpaceOnUse"><stop stop-color="#77B2F9" stop-opacity=".4"/><stop offset=".11" stop-color="#7BB4F9" stop-opacity=".42"/><stop offset=".27" stop-color="#89BDF9" stop-opacity=".49"/><stop offset=".47" stop-color="#9ECAFB" stop-opacity=".61"/><stop offset=".7" stop-color="#BCDCFC" stop-opacity=".76"/><stop offset=".95" stop-color="#E2F3FE" stop-opacity=".96"/><stop offset="1" stop-color="#EBF9FF"/></linearGradient><linearGradient id="q" x1="21.016" x2="21.016" y1="18.377" y2="8.736" gradientUnits="userSpaceOnUse"><stop stop-color="#405CE2"/><stop offset="1" stop-color="#7D99F5" stop-opacity=".5"/></linearGradient><linearGradient id="r" x1="2.378" x2="23.552" y1="15.08" y2="7.185" gradientUnits="userSpaceOnUse"><stop stop-color="#E6A9FF"/><stop offset="1" stop-color="#BE53FC"/></linearGradient><linearGradient id="s" x1="4.512" x2="21.529" y1="17.445" y2="6.961" gradientUnits="userSpaceOnUse"><stop stop-color="#DEB5FF"/><stop offset=".86" stop-color="#fff" stop-opacity="0"/></linearGradient><linearGradient id="t" x1="3.764" x2="24.055" y1="12.447" y2="12.447" gradientUnits="userSpaceOnUse"><stop stop-color="#FDFDFD"/><stop offset="1" stop-color="#CB70FF"/></linearGradient><clipPath id="a"><path d="M0 0h50v44H0z" fill="#fff"/></clipPath></defs></svg>