<svg width="164" height="44" viewBox="0 0 164 44" fill="none" xmlns="http://www.w3.org/2000/svg">
<g clip-path="url(#clip0_1785_3394)">
<path d="M2.96189 42.9986C1.75756 42.9769 1.33619 42.285 1.84184 41.2148C2.34749 40.1445 3.15218 39.2823 4.10096 38.5904C4.90294 38.004 5.72666 38.1067 6.55038 38.5472C7.87977 39.2607 8.91554 40.2904 9.80179 41.4661C10.3509 42.1796 10.0981 42.7472 9.16835 42.831C8.0918 42.9148 3.93241 43.0202 2.96189 42.9986Z" fill="url(#paint0_linear_1785_3394)"/>
<path d="M40.4373 13.1715C40.6058 14.7661 40.5433 16.3202 39.8881 17.8094C39.657 18.3121 39.4015 18.9229 38.7681 18.9013C38.0721 18.8796 37.9878 18.2094 37.8383 17.685C36.9521 14.4094 35.4949 11.4499 32.8987 9.18504C32.075 8.4499 31.1044 7.86341 30.2807 7.1499C29.669 6.62558 28.9921 5.97422 29.457 5.07152C29.8784 4.23098 30.7238 4.1472 31.5884 4.19044C36.3812 4.42017 39.8664 7.9472 40.4346 13.1742L40.4373 13.1715Z" fill="url(#paint1_linear_1785_3394)"/>
<path d="M45.1023 6.66338C45.2491 7.24987 45.3144 7.86068 45.3144 8.46879C45.3144 9.685 45.1676 10.8607 44.6375 11.9958C44.3846 12.5418 43.9823 13.0877 43.2863 13.004C42.6094 12.9202 42.6747 12.2688 42.5904 11.7877C42.063 9.20662 41.4078 6.68771 39.3172 4.83906C38.6838 4.27149 37.9444 3.80933 37.2702 3.285C36.9113 2.99041 36.4464 2.71744 36.5307 2.17149C36.6367 1.54176 37.1641 1.26879 37.735 1.14176C39.445 0.741758 40.9864 1.20392 42.3376 2.23365C43.8355 3.38771 44.681 4.92014 45.1023 6.66338Z" fill="url(#paint2_linear_1785_3394)"/>
<path opacity="0.5" d="M39.8908 17.8094C39.8473 17.9148 39.8066 18.0202 39.744 18.1229C40.1464 16.6337 39.9969 15.1418 39.6598 13.6526C38.4364 8.55262 34.5298 5.48776 29.6935 5.82289C29.5657 5.82289 29.4407 5.84451 29.3129 5.86613C29.2504 5.61478 29.2912 5.34181 29.4407 5.04722C29.8621 4.2283 30.7075 4.12289 31.572 4.16613C36.4084 4.41749 39.8908 7.96613 40.4617 13.1715C40.6085 14.7661 40.546 16.3202 39.8908 17.8094Z" fill="url(#paint3_linear_1785_3394)"/>
<path opacity="0.5" d="M45.3171 8.46879C45.3171 9.685 45.1703 10.8607 44.6402 11.9958C44.5124 12.2472 44.3656 12.5202 44.1536 12.7094C44.3004 12.4796 44.4064 12.185 44.4689 11.9121C44.7435 10.6958 44.6375 9.52014 44.3629 8.32284C44.2351 7.73635 44.0475 7.14717 43.773 6.60122C42.971 4.985 41.8102 3.6823 40.1002 2.885C38.9393 2.33906 37.7133 2.14987 36.5117 2.40122V2.17149C36.6177 1.54176 37.1451 1.26879 37.716 1.14176C39.426 0.741758 40.9674 1.20392 42.3185 2.23365C43.8165 3.36608 44.6619 4.89852 45.105 6.64176C45.2519 7.24987 45.3171 7.85798 45.3171 8.46879Z" fill="url(#paint4_linear_1785_3394)"/>
<path d="M47.1548 15.3742C44.0502 14.6391 42.9329 17.558 37.6535 25.1148C37.6535 25.1148 36.6394 26.8148 34.6331 29.0391C31.4443 32.5877 25.6809 37.4769 17.3621 39.1769C16.2013 39.4067 14.9752 39.5958 13.6893 39.6796C11.4737 39.8472 10.0573 39.6796 9.2771 39.2796C10.1226 39.8256 12.1697 40.6445 12.1697 40.6445C20.5727 43.5823 29.9056 43.185 38.0558 39.4067C54.1225 31.0094 50.2594 16.085 47.1548 15.3715V15.3742Z" fill="url(#paint5_linear_1785_3394)"/>
<path opacity="0.5" d="M38.0748 39.3877C29.9246 43.1661 20.5918 43.585 12.1669 40.6472C12.1669 40.6472 10.1199 39.8283 9.27441 39.2823C16.7287 42.4526 28.0461 40.5202 34.5896 37.4985C47.4702 30.7823 47.5327 19.8445 45.4422 15.4175C45.9696 15.2499 46.5187 15.2499 47.1521 15.3958C50.2567 16.0877 54.1198 31.0121 38.0721 39.3877H38.0748Z" fill="url(#paint6_linear_1785_3394)"/>
<g style="mix-blend-mode:overlay" opacity="0.5">
<path d="M38.0748 39.3877C33.4506 41.5283 28.4674 42.5985 23.4843 42.5796C28.3832 42.558 33.2603 41.4877 37.7785 39.3877C53.8262 31.0121 49.9821 16.0877 46.8585 15.3742C46.6057 15.3121 46.3529 15.2688 46.1191 15.2688C46.4344 15.2472 46.7742 15.2904 47.1331 15.3742C50.2567 16.0877 54.1225 31.0121 38.0748 39.3877Z" fill="white"/>
</g>
<path d="M35.2449 24.0229C35.2449 25.7661 33.6192 28.431 29.8622 31.9364C24.8573 36.6175 17.3622 39.158 17.3622 39.158C16.2014 39.3877 14.9753 39.5769 13.6894 39.6607C11.4738 39.8283 10.0574 39.6607 9.27716 39.2607C9.23366 39.2391 9.17114 39.1985 9.13036 39.1769H9.10861C5.79468 37.058 16.6472 29.5418 21.5243 26.3526C28.6823 22.5742 33.6002 21.358 34.7202 22.5958C35.0573 22.9742 35.2476 23.4553 35.2476 24.0229H35.2449Z" fill="url(#paint7_linear_1785_3394)"/>
<path opacity="0.77" d="M35.2449 24.0229C35.2449 25.7661 33.6192 28.431 29.8622 31.9364C24.8573 36.6175 17.3622 39.158 17.3622 39.158C16.2014 39.3877 14.9753 39.5769 13.6894 39.6607C11.4738 39.8283 10.0574 39.6607 9.27716 39.2607C9.23366 39.2391 9.17114 39.1985 9.13036 39.1769H9.10861C5.79468 37.058 16.6472 29.5418 21.5243 26.3526C28.6823 22.5742 33.6002 21.358 34.7202 22.5958C35.0573 22.9742 35.2476 23.4553 35.2476 24.0229H35.2449Z" fill="url(#paint8_linear_1785_3394)"/>
<path d="M24.4766 8.32288C26.7792 9.52018 22.3017 14.6634 16.3698 18.7985C16.3481 18.7985 16.3481 18.8202 16.3263 18.8202C14.8474 19.8499 13.306 20.7931 11.7238 21.6337C3.8074 25.7904 1.01816 22.0526 2.22248 20.3526C2.22248 20.3526 2.28501 20.2472 2.47531 20.0391L2.49705 20.0175L2.54055 19.9742C2.92115 19.5958 3.67963 18.9445 5.11775 18.1904C7.4394 16.9742 7.75747 16.5121 7.75747 16.5121C8.43439 16.2823 9.19287 15.9256 10.0383 15.4202C14.9779 12.4607 21.0186 7.31748 24.0579 8.1364C24.1857 8.19856 24.3325 8.26342 24.4793 8.32558C24.4648 8.31117 24.4648 8.31117 24.4793 8.32558L24.4766 8.32288Z" fill="url(#paint9_linear_1785_3394)"/>
<path opacity="0.5" d="M24.4766 8.32288C26.7792 9.52018 22.3017 14.6634 16.3698 18.7985C16.3481 18.7985 16.3481 18.8202 16.3263 18.8202C14.8474 19.8499 13.306 20.7931 11.7238 21.6337C3.8074 25.7904 1.01816 22.0526 2.22248 20.3526C2.22248 20.3526 2.28501 20.2472 2.47531 20.0391L2.49705 20.0175L2.54055 19.9742C2.92115 19.5958 3.67963 18.9445 5.11775 18.1904C7.4394 16.9742 7.75747 16.5121 7.75747 16.5121C8.43439 16.2823 9.19287 15.9256 10.0383 15.4202C14.9779 12.4607 21.0186 7.31748 24.0579 8.1364C24.1857 8.19856 24.3325 8.26342 24.4793 8.32558C24.4648 8.31117 24.4648 8.31117 24.4793 8.32558L24.4766 8.32288Z" fill="url(#paint10_linear_1785_3394)"/>
<path d="M21.5215 26.3526C20.1079 27.1094 18.6072 27.9472 17.025 28.9148C7.4611 34.6661 4.08193 32.1067 2.70905 30.9094C1.37967 29.7553 0.914803 27.6769 0.871306 27.531C-0.670119 22.5769 2.1599 20.3742 2.45351 20.0364C2.26321 20.2256 2.20068 20.3499 2.20068 20.3499C1.01811 22.0499 3.80463 25.8067 11.7021 21.631C13.2652 20.8121 14.8257 19.8472 16.3046 18.8175C16.3046 18.8175 16.3263 18.7958 16.3481 18.7958C16.9598 18.3769 23.169 14.1148 26.6949 12.9175C30.3269 11.6796 32.5426 15.0364 32.6703 15.2256C34.3586 17.9121 35.1605 20.9769 35.2258 24.0418C35.2258 23.4742 35.0572 22.9931 34.7201 22.6148C33.6001 21.3553 28.6822 22.5715 21.5242 26.3499L21.5215 26.3526Z" fill="url(#paint11_linear_1785_3394)"/>
<path opacity="0.5" d="M35.2448 24.0229C35.2448 23.4553 35.0763 22.9742 34.7392 22.5958C33.6001 21.358 28.7012 22.5526 21.5433 26.3526C20.1296 27.1094 18.629 27.9472 17.0468 28.9148C7.48289 34.6661 4.10371 32.1067 2.73084 30.9094C1.40146 29.7553 0.936594 27.6769 0.893098 27.531C0.555996 26.4823 0.428223 25.5364 0.428223 24.7175C0.743577 25.431 1.31447 26.4607 2.15994 27.0904C3.61709 28.1823 7.16482 30.5121 16.3073 24.1526C17.827 23.104 19.2624 22.158 20.6353 21.2985C24.289 19.031 27.3719 17.5418 29.631 16.8283C31.7433 16.1553 34.0024 17.3526 34.5924 19.4931C34.9947 20.9823 35.2258 22.4958 35.2475 24.0283L35.2448 24.0229Z" fill="url(#paint12_linear_1785_3394)"/>
<path d="M35.2204 24.0444C35.2204 25.7309 33.7007 28.2579 30.2046 31.612C30.085 31.7255 29.9627 31.8417 29.8376 31.9579C29.8159 31.9768 29.7941 31.9984 29.7724 32.0174C29.6473 32.1363 29.5195 32.2525 29.389 32.366C29.3836 32.3714 29.3782 32.3768 29.3727 32.3795C29.215 32.5201 29.0547 32.6579 28.8943 32.7903C28.7284 32.9282 28.5626 33.066 28.394 33.1984C28.2255 33.3336 28.0569 33.4633 27.8857 33.593C24.8191 35.912 21.3666 37.5417 19.276 38.4147C21.8505 37.2957 26.3225 35.0579 29.669 31.8552C33.3853 28.2849 34.9675 25.5984 34.9485 23.8552C34.9485 23.312 34.7772 22.8687 34.4836 22.512C34.2716 22.3039 34.0187 22.2201 33.891 22.1984C32.9639 22.0174 31.4687 22.2363 29.5059 22.8579C32.2571 21.9849 34.0894 21.9011 34.7147 22.5957C34.9893 22.9011 35.166 23.2768 35.2231 23.7093V23.7201C35.2312 23.8201 35.2285 23.9282 35.2204 24.0444Z" fill="url(#paint13_linear_1785_3394)"/>
<path d="M35.2231 23.7365C35.1768 23.2932 35.0137 22.9068 34.7364 22.5959C33.6517 21.4149 29.1471 22.45 22.5301 25.8392C22.2066 26.0068 21.8749 26.177 21.5405 26.3554C21.3258 26.4689 21.1083 26.5877 20.8881 26.7067C19.7028 27.3499 18.4604 28.0554 17.1609 28.8446C17.1229 28.8661 17.0821 28.8905 17.0413 28.9149C16.6118 29.1743 16.1931 29.4149 15.7881 29.6419C14.842 30.1662 13.9639 30.6068 13.1456 30.9716C13.1429 30.9716 13.1402 30.9742 13.1402 30.9742C6.63734 33.8661 3.99762 31.9851 2.79603 30.9689C2.77428 30.9473 2.7498 30.9284 2.72806 30.9095C2.53232 30.7338 2.35289 30.5446 2.1925 30.3392C2.2958 30.4581 2.41271 30.5689 2.53776 30.6797C3.91063 31.8743 7.28709 34.4365 16.8537 28.6851C18.4359 27.7203 19.9339 26.8797 21.3502 26.123C27.8095 22.7014 32.4773 21.3797 34.1655 22.0716C34.1655 22.0716 34.9485 22.304 35.1578 23.2904V23.331C35.1959 23.4553 35.2176 23.5905 35.2231 23.7365Z" fill="url(#paint14_linear_1785_3394)"/>
<path d="M25.0883 9.34726C25.091 9.36077 25.091 9.37428 25.0883 9.3878C25.0883 9.42834 25.0856 9.46617 25.0801 9.50942C24.8653 11.5041 21.3693 15.1986 16.938 18.377C21.7227 14.7635 25.371 10.5716 24.9306 8.73645C25.0366 8.90942 25.0883 9.11482 25.0883 9.34726Z" fill="url(#paint15_linear_1785_3394)"/>
<path d="M24.0552 8.1553C20.9941 7.31476 14.9752 12.4796 10.0356 15.4391C9.19011 15.9418 8.43163 16.2985 7.75471 16.531C6.8902 16.8256 6.15076 16.931 5.53909 16.931H5.24276C5.15849 16.931 5.09596 16.9094 5.03072 16.9094H4.96819C4.90566 16.9094 4.84042 16.8877 4.77789 16.8877C4.71536 16.8661 4.65012 16.8661 4.58759 16.8445C4.50331 16.8229 4.39729 16.8012 4.31302 16.7823C4.25049 16.7607 4.18523 16.7391 4.12271 16.7202C4.06018 16.6985 3.99494 16.6769 3.93242 16.658C3.86988 16.6364 3.82639 16.6148 3.76386 16.5742C3.10869 16.2607 2.79333 15.8823 2.79333 15.8823C3.55453 14.5391 4.50331 13.258 5.66414 12.1256C10.5412 7.27692 17.5714 5.91206 23.6746 8.03368C23.6529 8.01206 23.9057 8.09584 24.0552 8.16071V8.1553Z" fill="url(#paint16_linear_1785_3394)"/>
<path style="mix-blend-mode:overlay" opacity="0.7" d="M24.0552 8.15532C20.9941 7.31477 14.9752 12.4796 10.0356 15.4391C9.19011 15.9418 8.43163 16.2985 7.75471 16.531C6.8902 16.8256 6.15076 16.931 5.53909 16.931H5.24276C5.15849 16.931 5.09596 16.9094 5.03072 16.9094H4.96819C4.90566 16.9094 4.84042 16.8877 4.77789 16.8877C4.71536 16.8661 4.65012 16.8661 4.58759 16.8445C4.50331 16.8229 4.39729 16.8013 4.31302 16.7823C4.25049 16.7607 4.18523 16.7391 4.12271 16.7202C4.06018 16.6985 3.99494 16.6769 3.93242 16.658C3.86988 16.6391 3.82639 16.6148 3.76386 16.5742C3.13043 16.2796 2.83411 15.9229 2.79333 15.8823C3.0679 15.8202 3.36423 15.7364 3.67958 15.631C4.37554 15.4013 5.13674 15.0445 5.98221 14.5391C10.5222 11.831 15.9702 7.25533 19.2406 7.10938C19.537 7.13099 19.8115 7.15261 20.1051 7.19315C21.3095 7.3391 22.5111 7.61207 23.6746 8.01207C23.6529 8.01207 23.9274 8.09586 24.0552 8.15802V8.15532Z" fill="url(#paint17_linear_1785_3394)"/>
<path d="M24.0553 8.15529C20.9942 7.31475 14.9753 12.4796 10.0357 15.4391C9.19017 15.9418 8.43169 16.2985 7.75477 16.531C6.89027 16.8256 6.15082 16.931 5.53914 16.931H5.24282C5.15855 16.931 5.09602 16.9094 5.03077 16.9094H4.96825C4.90572 16.9094 4.84047 16.8877 4.77795 16.8877C4.71542 16.8661 4.65017 16.8661 4.58765 16.8445C4.50337 16.8229 4.39735 16.8013 4.31307 16.7823C4.25055 16.7607 4.1853 16.7391 4.12277 16.7202C4.06025 16.6985 3.995 16.6769 3.93247 16.658C3.86995 16.6364 3.82645 16.6148 3.76392 16.5742C4.5659 16.8688 5.79197 17.0148 7.50195 16.4283C8.17887 16.1985 8.93735 15.8418 9.78282 15.3364C14.66 12.4175 20.5946 7.3607 23.6747 8.03097C23.653 8.00935 23.9058 8.09313 24.0553 8.158V8.15529Z" fill="url(#paint18_linear_1785_3394)"/>
<path d="M65.1327 18.0607C64.1567 18.0607 63.7109 18.5877 63.7109 19.2418C63.7109 20.1283 64.3253 20.5931 65.8314 21.1391C69.1616 22.3202 70.7547 23.6904 70.7547 26.4769C70.7547 29.2634 68.9305 31.4769 64.7929 31.4769C61.3756 31.4769 59.1709 29.831 59.1709 27.1094C59.1709 25.9904 59.5107 25.231 59.9565 24.7904C60.0408 24.685 60.1251 24.6418 60.2121 24.6418C60.3616 24.6418 60.4459 24.7256 60.5302 24.8526C61.5279 26.604 63.2025 27.7418 64.8173 27.7418C65.8993 27.7418 66.5572 27.3607 66.5572 26.5607C66.5572 25.7607 65.9211 25.3364 64.309 24.8094C61.6556 23.9012 59.5352 22.5931 59.5352 19.6634C59.5352 16.9418 61.4653 14.7688 65.1164 14.7688C67.1526 14.7688 68.8925 15.3607 70.0397 16.2229C70.23 16.3715 70.317 16.5391 70.317 16.7283C70.317 17.3607 69.5966 18.8175 68.9577 19.5958C68.8734 19.7013 68.7674 19.7634 68.6396 19.7634C68.5336 19.7634 68.4276 19.7202 68.3433 19.6364C67.2831 18.6229 66.0951 18.0553 65.1381 18.0553L65.1327 18.0607Z" fill="#F7F9FB"/>
<path d="M82.7463 23.1229C82.7463 26.3284 82.4282 29.7041 82.3004 30.5905C82.2379 30.9904 82.0231 31.1823 81.705 31.2013C81.3652 31.2445 80.8976 31.2445 80.411 31.2445C79.8809 31.2445 79.3725 31.2229 78.9267 31.2013C78.5869 31.158 78.4591 31.0121 78.4591 30.758C78.4591 29.7877 78.7772 26.2662 78.7772 23.5014C78.7772 22.0041 78.5216 21.285 77.7387 21.285C77.3581 21.285 77.0182 21.4122 76.7627 21.6635C76.4011 22.0014 76.2543 22.5905 76.2543 24.1311C76.2543 27.2958 76.5507 30.0176 76.5507 30.65C76.5507 31.031 76.3821 31.177 75.9988 31.1987C75.6155 31.2203 75.2131 31.2418 74.8108 31.2418C74.2807 31.2418 73.7723 31.2203 73.389 31.1987C73.0274 31.177 72.7936 31.0715 72.7528 30.5229C72.6033 28.8986 72.4973 26.8311 72.4973 24.4473C72.4973 22.7392 72.5408 20.8608 72.6876 18.8797C72.7311 18.2041 73.1334 18.0364 73.6853 17.9715C74.0659 17.9499 74.5117 17.9284 74.9358 17.9284C75.2974 17.9284 75.6562 17.9499 75.9118 17.9715C76.2951 17.9931 76.4419 18.1607 76.4419 18.4553C76.4419 18.7499 76.5479 18.8554 76.7382 18.8554C77.3744 18.8554 78.1818 17.7365 79.7722 17.7365C81.7893 17.7365 82.7435 19.1904 82.7435 23.1148L82.7463 23.1229Z" fill="#F7F9FB"/>
<path d="M84.2306 27.2147C84.2306 24.1552 86.6501 22.9336 89.4067 22.5309C90.0646 22.4255 90.3827 22.2768 90.3827 21.8984C90.3827 21.2444 90.0211 20.8228 89.0044 20.8228C87.9006 20.8228 86.7969 21.2876 85.7992 22.1741C85.6714 22.3011 85.5437 22.3633 85.4376 22.3633C85.3534 22.3633 85.2473 22.3201 85.1631 22.2363C84.7607 21.8579 84.3774 21.1822 84.3774 20.3174C84.3774 18.8201 86.2233 17.6606 89.2572 17.6606C92.8212 17.6606 94.0745 19.4336 94.0745 22.5768C94.0745 23.8633 93.9685 25.8876 93.9685 27.4498C93.9685 28.6741 94.137 30.066 94.137 30.4039C94.137 30.7633 93.9685 30.9957 93.6069 31.0579C92.9273 31.2066 90.5947 31.2255 89.1947 31.2255C85.9487 31.2255 84.2306 30.0228 84.2306 27.2174V27.2147ZM90.4044 25.7174C90.4044 25.0849 90.3202 24.9147 89.9586 24.9147C88.7923 24.9147 87.8381 25.5903 87.8381 26.6876C87.8381 27.6147 88.4743 28.0174 89.5563 28.0174C90.2359 28.0174 90.4044 27.7228 90.4044 27.0903V25.7201V25.7174Z" fill="#F7F9FB"/>
<path d="M100.27 31.2012C99.7617 31.2444 99.1664 31.2633 98.552 31.2633C97.9376 31.2633 97.3422 31.2417 96.8121 31.2012C96.6001 31.1795 96.3228 31.0957 96.282 30.6525C96.1134 29.239 96.0264 27.5714 96.0264 25.8444C96.0264 23.293 96.195 20.612 96.5566 18.4822C96.6408 18.0606 96.8746 17.9768 97.1519 17.9552C97.6195 17.912 98.0436 17.912 98.446 17.912C98.8701 17.912 99.2942 17.912 99.7617 17.9552C100.08 17.9768 100.248 18.1228 100.248 18.3768C100.248 18.8417 100.099 20.7606 100.099 22.9957C100.099 27.193 100.672 30.0822 100.672 30.8228C100.672 31.0768 100.482 31.1822 100.27 31.2039V31.2012ZM96.195 15.3795C96.195 14.2606 96.9372 13.566 98.5085 13.566C100.164 13.566 100.822 14.2633 100.822 15.3795C100.822 16.4957 100.164 17.1093 98.5085 17.1093C96.9372 17.1093 96.195 16.4768 96.195 15.3795Z" fill="#F7F9FB"/>
<path d="M106.955 31.2014C106.468 31.2446 105.895 31.2446 105.299 31.2446C104.704 31.2446 104.09 31.2446 103.581 31.2014C103.348 31.1797 103.029 31.0743 102.986 30.5905C102.817 28.8608 102.73 26.8365 102.73 24.7257C102.73 21.2878 102.942 17.5743 103.367 14.4959C103.429 14.0527 103.663 13.9905 103.94 13.9473C104.427 13.9257 104.894 13.9041 105.384 13.9041C105.873 13.9041 106.36 13.9257 106.806 13.9473C107.102 13.9689 107.295 14.0959 107.295 14.3905C107.295 14.75 106.912 18.4419 106.912 22.323C106.912 26.4149 107.357 30.1689 107.357 30.7824C107.357 31.0554 107.189 31.1824 106.955 31.2041V31.2014Z" fill="#F7F9FB"/>
<path d="M113.384 13.9877C113.681 14.0094 113.915 14.1148 113.915 14.4094C113.915 14.8094 113.319 17.531 113.319 18.7769C113.319 18.9877 113.425 19.0715 113.553 19.0715C113.659 19.0715 113.722 19.0094 113.809 18.9229C114.423 18.3121 115.146 17.6796 116.356 17.6796C118.414 17.6796 119.898 19.6418 119.898 23.4796C119.898 28.1823 118.115 31.3256 113.703 31.3256C112.387 31.3256 110.987 31.0526 110.329 30.7985C109.905 30.631 109.693 30.3337 109.627 29.9958C109.437 28.8769 109.288 26.8094 109.288 24.3634C109.288 19.5958 109.562 16.6229 109.839 14.7445C109.924 14.2391 110.051 14.0688 110.519 14.0283C111.071 13.9661 111.685 13.9661 112.259 13.9661C112.661 13.9661 113.023 13.9661 113.384 13.9877ZM114.616 20.758C114.32 20.758 114.042 20.885 113.83 21.1175C113.344 21.5823 113.129 22.3202 113.129 24.4715C113.129 27.931 113.363 28.3958 114.339 28.3958C115.315 28.3958 115.973 27.0256 115.973 24.0499C115.973 21.604 115.421 20.7607 114.613 20.7607L114.616 20.758Z" fill="#F7F9FB"/>
<path d="M125.67 31.1795C125.267 31.2012 124.778 31.2228 124.226 31.2228C123.674 31.2228 123.101 31.2228 122.508 31.1795C122.212 31.1579 122 30.9687 121.913 30.6093C121.657 29.5336 121.488 27.2984 121.488 24.5768C121.488 20.9066 121.657 19.239 121.85 18.5444C121.934 18.2066 122.084 18.0795 122.252 18.0174C122.508 17.9552 123.207 17.8903 123.865 17.8903C124.226 17.8903 124.566 17.8903 124.819 17.9525C125.053 17.9957 125.115 18.1417 125.137 18.3957C125.159 18.6498 125.265 18.7336 125.371 18.7336C125.477 18.7336 125.583 18.6714 125.732 18.566C126.156 18.1849 126.602 17.8282 127.07 17.8282C127.45 17.8282 127.706 18.312 127.706 19.9795C127.706 20.7606 127.662 21.4984 127.537 21.8768C127.431 22.2363 127.263 22.3201 127.07 22.3201C126.814 22.3201 126.474 22.1309 126.072 22.1309C125.67 22.1309 125.33 22.5309 125.33 24.1768C125.33 26.8336 126.222 30.2525 126.222 30.6741C126.222 30.9471 126.094 31.139 125.67 31.1795Z" fill="#F7F9FB"/>
<path d="M128.831 24.6633C128.831 20.4876 130.634 17.6606 134.22 17.6606C137.805 17.6606 139.29 20.3606 139.29 24.6633C139.29 29.4525 136.957 31.4768 133.92 31.4768C130.884 31.4768 128.829 29.4525 128.829 24.6633H128.831ZM135.557 24.3687C135.557 21.9417 135.005 20.8039 134.073 20.8039C133.075 20.8039 132.545 21.9417 132.545 24.3687C132.545 26.7957 132.969 27.8282 134.051 27.8282C135.133 27.8282 135.557 26.7309 135.557 24.3687Z" fill="#F7F9FB"/>
<path d="M140.543 24.6633C140.543 20.4876 142.345 17.6606 145.931 17.6606C149.517 17.6606 151.001 20.3606 151.001 24.6633C151.001 29.4525 148.669 31.4768 145.632 31.4768C142.595 31.4768 140.54 29.4525 140.54 24.6633H140.543ZM147.269 24.3687C147.269 21.9417 146.717 20.8039 145.784 20.8039C144.787 20.8039 144.256 21.9417 144.256 24.3687C144.256 26.7957 144.681 27.8282 145.763 27.8282C146.845 27.8282 147.269 26.7309 147.269 24.3687Z" fill="#F7F9FB"/>
<path d="M156.797 31.2013C156.311 31.2446 155.715 31.2446 155.12 31.2446C154.524 31.2446 153.932 31.2446 153.402 31.2013C153.168 31.1797 152.85 31.0743 152.809 30.5905C152.681 28.8608 152.66 26.8365 152.66 24.7257C152.66 21.2878 152.828 17.5527 153.233 14.4959C153.296 14.0527 153.573 13.9689 153.807 13.9473C154.253 13.9257 154.739 13.9041 155.25 13.9041C155.761 13.9041 156.27 13.9257 156.735 13.9473C157.031 13.9689 157.243 14.0959 157.243 14.3689C157.243 14.6419 156.436 19.8527 156.436 22.7635C156.436 23.0797 156.542 23.2689 156.775 23.2689C158.135 23.2689 159.024 21.0122 159.13 18.4392C159.151 18.0797 159.32 17.9959 159.638 17.9554C159.956 17.9338 160.486 17.9338 161.06 17.9338C161.74 17.9338 162.438 17.9338 162.737 17.9554C162.993 17.977 163.205 18.0608 163.205 18.4824C163.205 20.7176 161.571 22.8689 160.785 23.5878C160.658 23.7149 160.573 23.8419 160.573 23.9473C160.573 24.0527 160.658 24.1365 160.785 24.2419C162.27 25.3392 163.585 26.7527 163.585 30.5284C163.585 31.0122 163.523 31.1392 163.034 31.2041C162.694 31.2257 162.185 31.2473 161.612 31.2473C161.103 31.2473 160.573 31.2473 160.127 31.2041C159.597 31.1608 159.47 31.0986 159.448 30.55C159.342 27.4716 158.388 25.5284 157.219 25.5284C156.751 25.5284 156.561 25.9716 156.561 26.6662C156.561 28.2284 157.219 30.2743 157.219 30.7797C157.219 31.0338 157.05 31.1797 156.794 31.2013H156.797Z" fill="#F7F9FB"/>
</g>
<defs>
<linearGradient id="paint0_linear_1785_3394" x1="4.65827" y1="44.2958" x2="8.25395" y2="37.2004" gradientUnits="userSpaceOnUse">
<stop stop-color="#4AD2D3"/>
<stop offset="0.4" stop-color="#4AD2D3"/>
<stop offset="1" stop-color="#88F1DA"/>
</linearGradient>
<linearGradient id="paint1_linear_1785_3394" x1="40.3693" y1="15.4742" x2="32.1372" y2="6.16963" gradientUnits="userSpaceOnUse">
<stop stop-color="#4AD2D3"/>
<stop offset="1" stop-color="#70F0D4"/>
</linearGradient>
<linearGradient id="paint2_linear_1785_3394" x1="45.6352" y1="10.8148" x2="37.4031" y2="1.51014" gradientUnits="userSpaceOnUse">
<stop stop-color="#4AD2D3"/>
<stop offset="1" stop-color="#70F0D4"/>
</linearGradient>
<linearGradient id="paint3_linear_1785_3394" x1="40.8342" y1="14.8688" x2="32.6831" y2="5.6539" gradientUnits="userSpaceOnUse">
<stop stop-color="white"/>
<stop offset="1" stop-color="white" stop-opacity="0"/>
</linearGradient>
<linearGradient id="paint4_linear_1785_3394" x1="46.0158" y1="10.4742" x2="37.7864" y2="1.17231" gradientUnits="userSpaceOnUse">
<stop stop-color="white"/>
<stop offset="1" stop-color="white" stop-opacity="0"/>
</linearGradient>
<linearGradient id="paint5_linear_1785_3394" x1="13.1456" y1="45.6364" x2="50.8913" y2="21.3006" gradientUnits="userSpaceOnUse">
<stop stop-color="#009194"/>
<stop offset="0.13" stop-color="#06999B"/>
<stop offset="0.34" stop-color="#17AFB1"/>
<stop offset="0.51" stop-color="#28C6C7"/>
<stop offset="1" stop-color="#3FE8C3"/>
</linearGradient>
<linearGradient id="paint6_linear_1785_3394" x1="51.355" y1="21.5769" x2="13.0926" y2="45.2551" gradientUnits="userSpaceOnUse">
<stop stop-color="#FFF2BF"/>
<stop offset="0.86" stop-color="white" stop-opacity="0"/>
</linearGradient>
<linearGradient id="paint7_linear_1785_3394" x1="19.0097" y1="27.5067" x2="25.6029" y2="35.4095" gradientUnits="userSpaceOnUse">
<stop stop-color="#0B23AD"/>
<stop offset="1" stop-color="#4F66FF"/>
</linearGradient>
<linearGradient id="paint8_linear_1785_3394" x1="20.1569" y1="26.0472" x2="23.8452" y2="36.8226" gradientUnits="userSpaceOnUse">
<stop stop-color="#01010A"/>
<stop offset="0.38" stop-color="#0F1875" stop-opacity="0.32"/>
<stop offset="1" stop-color="#1724A7" stop-opacity="0"/>
</linearGradient>
<linearGradient id="paint9_linear_1785_3394" x1="14.407" y1="22.431" x2="12.8242" y2="9.47469" gradientUnits="userSpaceOnUse">
<stop stop-color="#0B23AD"/>
<stop offset="1" stop-color="#4F66FF"/>
</linearGradient>
<linearGradient id="paint10_linear_1785_3394" x1="10.0573" y1="25.3229" x2="16.7076" y2="5.89892" gradientUnits="userSpaceOnUse">
<stop stop-color="#020212"/>
<stop offset="0.13" stop-color="#080C40" stop-opacity="0.69"/>
<stop offset="0.5" stop-color="#131E8E" stop-opacity="0.16"/>
<stop offset="1" stop-color="#1724A7" stop-opacity="0"/>
</linearGradient>
<linearGradient id="paint11_linear_1785_3394" x1="1.76843" y1="29.9769" x2="32.5591" y2="15.4927" gradientUnits="userSpaceOnUse">
<stop stop-color="#2E51FF"/>
<stop offset="1" stop-color="#68E0FB"/>
</linearGradient>
<linearGradient id="paint12_linear_1785_3394" x1="34.6005" y1="19.6769" x2="1.87894" y2="29.5226" gradientUnits="userSpaceOnUse">
<stop stop-color="white"/>
<stop offset="0.86" stop-color="white" stop-opacity="0"/>
</linearGradient>
<linearGradient id="paint13_linear_1785_3394" x1="27.2522" y1="38.4147" x2="27.2522" y2="22.1309" gradientUnits="userSpaceOnUse">
<stop stop-color="#B7C2F4"/>
<stop offset="0.12" stop-color="#B0BCF4" stop-opacity="0.98"/>
<stop offset="0.31" stop-color="#9FABF4" stop-opacity="0.91"/>
<stop offset="0.53" stop-color="#8391F4" stop-opacity="0.79"/>
<stop offset="0.79" stop-color="#5D6DF4" stop-opacity="0.64"/>
<stop offset="1" stop-color="#3A4CF5" stop-opacity="0.5"/>
</linearGradient>
<linearGradient id="paint14_linear_1785_3394" x1="2.1925" y1="27.2041" x2="35.2231" y2="27.2041" gradientUnits="userSpaceOnUse">
<stop stop-color="#77B2F9" stop-opacity="0.4"/>
<stop offset="0.11" stop-color="#7BB4F9" stop-opacity="0.42"/>
<stop offset="0.27" stop-color="#89BDF9" stop-opacity="0.49"/>
<stop offset="0.47" stop-color="#9ECAFB" stop-opacity="0.61"/>
<stop offset="0.7" stop-color="#BCDCFC" stop-opacity="0.76"/>
<stop offset="0.95" stop-color="#E2F3FE" stop-opacity="0.96"/>
<stop offset="1" stop-color="#EBF9FF"/>
</linearGradient>
<linearGradient id="paint15_linear_1785_3394" x1="21.0159" y1="18.377" x2="21.0159" y2="8.73645" gradientUnits="userSpaceOnUse">
<stop stop-color="#405CE2"/>
<stop offset="1" stop-color="#7D99F5" stop-opacity="0.5"/>
</linearGradient>
<linearGradient id="paint16_linear_1785_3394" x1="2.37739" y1="15.0796" x2="23.5521" y2="7.18537" gradientUnits="userSpaceOnUse">
<stop stop-color="#E6A9FF"/>
<stop offset="1" stop-color="#BE53FC"/>
</linearGradient>
<linearGradient id="paint17_linear_1785_3394" x1="4.51146" y1="17.4445" x2="21.5294" y2="6.96123" gradientUnits="userSpaceOnUse">
<stop stop-color="#DEB5FF"/>
<stop offset="0.86" stop-color="white" stop-opacity="0"/>
</linearGradient>
<linearGradient id="paint18_linear_1785_3394" x1="3.76392" y1="12.4472" x2="24.0553" y2="12.4472" gradientUnits="userSpaceOnUse">
<stop stop-color="#FDFDFD"/>
<stop offset="1" stop-color="#CB70FF"/>
</linearGradient>
<clipPath id="clip0_1785_3394">
<rect width="164" height="44" fill="white"/>
</clipPath>
</defs>
</svg>
