<svg width="26" height="25" viewBox="0 0 26 25" fill="none" xmlns="http://www.w3.org/2000/svg">
<path fill-rule="evenodd" clip-rule="evenodd" d="M12.5482 24.7874C19.4783 24.7874 25.0964 19.2915 25.0964 12.5121C25.0964 5.73256 19.4783 0.236694 12.5482 0.236694C5.61806 0.236694 6.10352e-05 5.73256 6.10352e-05 12.5121C6.10352e-05 19.2915 5.61806 24.7874 12.5482 24.7874ZM4.15699 11.888C4.04839 11.928 3.97219 12.0357 3.97219 12.1493C3.97219 12.2628 4.04839 12.3704 4.15699 12.4103L7.56438 13.6278L14.5845 10.0814C14.6583 10.0455 14.7551 10.0701 14.8017 10.1366C14.8484 10.2032 14.837 10.3003 14.7762 10.3547L10.0514 14.5004L15.3454 18.6707C15.4214 18.7247 15.5241 18.7383 15.6121 18.7063C15.7001 18.6743 15.7686 18.5984 15.7903 18.5089L18.5942 6.97235C18.6184 6.87364 18.5832 6.7648 18.5053 6.69775C18.4274 6.63072 18.3125 6.6104 18.2155 6.6465L4.15699 11.888Z" fill="white"/>
</svg>
