<svg width="26" height="21" viewBox="0 0 26 21" fill="none" xmlns="http://www.w3.org/2000/svg">
<path d="M0 18.3254C17.8151 25.0897 22.8583 12.7168 22.7062 6.60794C24.1532 6.22176 25.0963 5.25822 25.0963 4.26977C23.9013 4.88408 23.2766 4.70949 22.6791 4.26977C23.9658 3.41246 23.9013 2.19026 23.9013 1.34708C23.2996 1.65559 22.186 2.41827 20.9135 2.51617C20.0628 1.21476 17.9259 0.178015 14.9382 1.34709C11.9506 2.51616 11.3531 5.63372 11.9506 7.1925C8.12642 7.1925 3.58519 3.29556 1.79259 1.34709C-0.355754 4.34592 2.36217 7.3205 3.58519 8.3616C2.76985 8.60008 1.79259 8.3616 1.19506 7.77705C1.19506 11.1149 4.18272 12.4533 5.37778 13.038H2.98766C2.98766 15.3761 5.77613 16.3503 7.17036 16.5451C6.21432 17.4804 2.36252 18.3254 0 18.3254Z" fill="white"/>
</svg>
