<svg xmlns="http://www.w3.org/2000/svg" fill="none" viewBox="0 0 276 49"><path d="M.333 24.5a2.667 2.667 0 1 0 5.334 0 2.667 2.667 0 0 0-5.334 0ZM3 25h103v-1H3v1Z" fill="#fff"/><rect fill="#fff" width="170" height="49" x="106" rx="24"/><path d="M136.12 32.16c-.987 0-1.853-.207-2.6-.62a4.466 4.466 0 0 1-1.74-1.78c-.413-.76-.62-1.64-.62-2.64V18h2.76v9.04c0 .8.2 1.447.6 1.94.413.493.947.74 1.6.74h2.12c.667 0 1.207-.247 1.62-.74.413-.493.62-1.14.62-1.94V18h2.76v9.12c0 1-.207 1.88-.62 2.64-.413.76-1 1.353-1.76 1.78-.76.413-1.633.62-2.62.62h-2.12Zm13.795-.16c-1.174 0-2.034-.267-2.58-.8-.547-.533-.82-1.36-.82-2.48v-4.38h-1.76v-2.32h1.84V19h2.64v3.02h2.6v2.32h-2.6v4.26c0 .373.066.647.2.82.146.173.373.26.68.26h1.72V32h-1.92Zm5.563-10.92c-.52 0-.94-.147-1.26-.44-.307-.307-.46-.707-.46-1.2s.153-.887.46-1.18c.32-.307.74-.46 1.26-.46s.933.153 1.24.46c.32.293.48.687.48 1.18 0 .493-.16.893-.48 1.2-.307.293-.72.44-1.24.44Zm-1.36.94h2.72V32h-2.72v-9.98Zm8.841 9.98c-1.186 0-2.06-.247-2.62-.74-.546-.507-.82-1.287-.82-2.34V18h2.72v10.76c0 .32.074.553.22.7.147.147.38.22.7.22h1.08V32h-1.28Zm4.198-10.92c-.52 0-.94-.147-1.26-.44-.306-.307-.46-.707-.46-1.2s.154-.887.46-1.18c.32-.307.74-.46 1.26-.46s.934.153 1.24.46c.32.293.48.687.48 1.18 0 .493-.16.893-.48 1.2-.306.293-.72.44-1.24.44Zm-1.36.94h2.72V32h-2.72v-9.98Zm9.762 9.98c-1.173 0-2.033-.267-2.58-.8-.547-.533-.82-1.36-.82-2.48v-4.38h-1.76v-2.32h1.84V19h2.64v3.02h2.6v2.32h-2.6v4.26c0 .373.067.647.2.82.147.173.373.26.68.26h1.72V32h-1.92Zm7.606 4.06c-1.08 0-1.973-.307-2.68-.92-.693-.6-1.08-1.393-1.16-2.38h2.68a.978.978 0 0 0 .36.7c.213.187.48.28.8.28h1.64c.413 0 .747-.173 1-.52.267-.333.4-.773.4-1.32v-1.3c-.307.413-.66.74-1.06.98-.387.227-.773.34-1.16.34h-1.32c-1.053 0-1.9-.347-2.54-1.04-.64-.707-.96-1.64-.96-2.8v-6.06h2.72v6.1c0 .44.107.8.32 1.08.227.267.52.4.88.4h1.16c.44 0 .84-.18 1.2-.54.36-.373.613-.86.76-1.46v-5.58h2.72v9.88c0 .827-.173 1.553-.52 2.18a3.53 3.53 0 0 1-1.44 1.46c-.627.347-1.347.52-2.16.52h-1.64ZM200.52 20.4h-4.44V18h11.64v2.4h-4.44V32h-2.76V20.4Zm10.145 11.76c-.84 0-1.587-.16-2.24-.48-.64-.333-1.14-.8-1.5-1.4-.347-.6-.52-1.293-.52-2.08v-2.34c0-.787.18-1.48.54-2.08.36-.613.86-1.087 1.5-1.42.653-.333 1.4-.5 2.24-.5h1.8c.84 0 1.58.167 2.22.5a3.64 3.64 0 0 1 1.52 1.42c.36.6.54 1.293.54 2.08v2.34c0 .787-.18 1.48-.54 2.08a3.68 3.68 0 0 1-1.52 1.4c-.64.32-1.387.48-2.24.48h-1.8Zm1.76-2.34c.493 0 .886-.167 1.18-.5.293-.347.44-.793.44-1.34v-1.94c0-.547-.147-.987-.44-1.32-.294-.347-.68-.52-1.16-.52h-1.72c-.48 0-.867.173-1.16.52-.294.333-.44.773-.44 1.32v1.94c0 .547.146.993.44 1.34.293.333.673.5 1.14.5h1.72Zm8.88 2.18c-.893 0-1.467-.52-1.72-1.56l-2.02-8.42h2.82l1.22 6.34h.04l2.18-6.1h1.06c.307 0 .553.067.74.2.187.133.333.34.44.62l1.86 5.28h.04l1.2-6.34h2.82l-1.98 8.42c-.24 1.04-.813 1.56-1.72 1.56h-1.24l-2.22-6.32-2.3 6.32h-1.22Zm15.766.16c-.84 0-1.586-.153-2.24-.46-.64-.32-1.14-.76-1.5-1.32-.36-.573-.54-1.227-.54-1.96v-2.58c0-.787.18-1.48.54-2.08.36-.6.86-1.067 1.5-1.4.654-.333 1.4-.5 2.24-.5h1.6c1.28 0 2.307.36 3.08 1.08.774.72 1.16 1.68 1.16 2.88v2.12h-7.4v.48c0 .44.14.793.42 1.06.28.267.66.4 1.14.4h1.56c.467 0 .84-.1 1.12-.3.294-.213.44-.487.44-.82h2.68c0 .667-.18 1.26-.54 1.78-.36.52-.866.92-1.52 1.2-.64.28-1.38.42-2.22.42h-1.52Zm3.16-6.18v-.16c0-.52-.14-.933-.42-1.24-.28-.32-.653-.48-1.12-.48h-1.62c-.48 0-.866.167-1.16.5-.293.333-.44.773-.44 1.32v.06h4.76Zm4.523-3.96h2.52v1.28c.253-.387.613-.7 1.08-.94.48-.253.98-.38 1.5-.38h1.36v2.36h-1.36c-.707 0-1.28.213-1.72.64-.44.427-.66.973-.66 1.64V32h-2.72v-9.98Z" fill="#000"/></svg>