<svg width="26" height="19" viewBox="0 0 26 19" fill="none" xmlns="http://www.w3.org/2000/svg">
<path fill-rule="evenodd" clip-rule="evenodd" d="M0.196823 4.70629C0.0858286 6.09777 0.000946045 7.7547 0.000946045 9.51298C0.000946045 11.3343 0.0920228 13.0467 0.208846 14.4682C0.375508 16.4959 1.95524 18.045 3.99302 18.1836C6.03954 18.3228 8.90443 18.4405 12.5491 18.4405C16.1938 18.4405 19.0586 18.3228 21.1051 18.1836C23.1429 18.045 24.7227 16.4959 24.8893 14.4682C25.0062 13.0467 25.0972 11.3343 25.0972 9.51298C25.0972 7.7547 25.0124 6.09777 24.9014 4.70629C24.7339 2.60681 23.0632 0.992355 20.9538 0.845865C18.9273 0.705111 16.1586 0.585449 12.5491 0.585449C8.93953 0.585449 6.17092 0.705111 4.1443 0.845865C2.03497 0.992355 0.364295 2.60681 0.196823 4.70629ZM16.5417 9.51298L10.2676 6.16516V12.8608L16.5417 9.51298Z" fill="white"/>
</svg>
